<svg xmlns="http://www.w3.org/2000/svg" width="912" height="439" viewBox="0 0 912 439" fill="none"><defs><clipPath id="ClipPath-1"><ellipse cx="217.5" cy="219.5" rx="227.5" ry="219.5" stroke="#fff" stroke-width="2"/></clipPath><clipPath id="ClipPath-2"><ellipse cx="217.5" cy="219.5" rx="227.5" ry="219.5" stroke="#fff" stroke-width="2"/></clipPath></defs><style>
@keyframes a_d { 0% { d: path('M0,-40C-72,-40,-220,27.5,-220,179.5C-220,342.5,-64.5,399,0,399'); } 100% { d: path('M0,-40C-36.5,-40,-110,73.5,-110,179.5C-110,285.2,-33.5,399,0,399'); } }
@keyframes b_d { 0% { d: path('M0,-40C-36.5,-40,-110,73.5,-110,179.5C-110,285.2,-33.5,399,0,399'); } 100% { d: path('M0,-40C-1,-40,0,119.5,0,179.5C0,228,-2.5,399,0,399'); } }
@keyframes c_d { 0% { d: path('M0,-40C-1,-40,0,119.5,0,179.5C0,228,-2.5,399,0,399'); } 100% { d: path('M0,-40C75.2,-40,118,100.2,118,179.5C118,257.5,71,399,0,399'); } }
@keyframes d_d { 0% { d: path('M0,-40C75.2,-40,118,100.2,118,179.5C118,257.5,71,399,0,399'); } 100% { d: path('M0,-40C151.5,-40,236,81,236,179.5C236,287,144.5,399,0,399'); } }
@keyframes e_d { 0% { d: path('M0,-40C-72,-40,-220,27.5,-220,179.5C-220,342.5,-64.5,399,0,399'); } 100% { d: path('M0,-40C-36.5,-40,-110,73.5,-110,179.5C-110,285.2,-33.5,399,0,399'); } }
@keyframes f_d { 0% { d: path('M0,-40C-36.5,-40,-110,73.5,-110,179.5C-110,285.2,-33.5,399,0,399'); } 100% { d: path('M0,-40C-1,-40,0,119.5,0,179.5C0,228,-2.5,399,0,399'); } }
@keyframes g_d { 0% { d: path('M0,-40C-1,-40,0,119.5,0,179.5C0,228,-2.5,399,0,399'); } 100% { d: path('M0,-40C75.2,-40,118,100.2,118,179.5C118,257.5,71,399,0,399'); } }
@keyframes h_d { 0% { d: path('M0,-40C75.2,-40,118,100.2,118,179.5C118,257.5,71,399,0,399'); } 100% { d: path('M0,-40C151.5,-40,236,81,236,179.5C236,287,144.5,399,0,399'); } }
</style><ellipse cx="684" cy="220.5" rx="228.5" ry="218.5" fill="#406cc9"/><path fill="#dcdcdc" d="M912 218.5c0-120.3 0-43.2 0 0Zm-236 220.5v-220.5h236c0 126-94.5 220.5-236 220.5Z" fill-rule="evenodd"/><g clip-path="url(#ClipPath-1)" transform="translate(466.5,0)"><path d="M0-40c-72 0-220 67.5-220 219.5c0 163 155.5 219.5 220 219.5" stroke-linecap="square" stroke="#fff" transform="translate(209,40)" style="animation: 2s linear infinite both a_d;"/><path d="M0-40c-36.5 0-110 113.5-110 219.5c0 105.8 76.5 219.5 110 219.5" stroke-linecap="square" stroke="#fff" transform="translate(209,40)" style="animation: 2s linear infinite both b_d;"/><path d="M0-40c-1 0 0 159.5 0 219.5c0 48.5-2.5 219.5 0 219.5" stroke-linecap="square" stroke="#fff" transform="translate(209,40)" style="animation: 2s linear infinite both c_d;"/><path d="M0-40c75.2 0 118 140.2 118 219.5c0 78-47 219.5-118 219.5" stroke-linecap="square" stroke="#fff" transform="translate(209,40)" style="animation: 2s linear infinite both d_d;"/></g><path d="M456.5 218.5l455 .2" stroke="#fff" stroke-width=".5" stroke-linecap="square"/><g><ellipse cx="228.5" cy="220.5" rx="228.5" ry="218.5" fill="#406cc9"/><g clip-path="url(#ClipPath-2)" transform="translate(11,0)"><path d="M0-40c-72 0-220 67.5-220 219.5c0 163 155.5 219.5 220 219.5" stroke-linecap="square" stroke="#fff" transform="translate(209,40)" style="animation: 2s linear infinite both e_d;"/><path d="M0-40c-36.5 0-110 113.5-110 219.5c0 105.8 76.5 219.5 110 219.5" stroke-linecap="square" stroke="#fff" transform="translate(209,40)" style="animation: 2s linear infinite both f_d;"/><path d="M0-40c-1 0 0 159.5 0 219.5c0 48.5-2.5 219.5 0 219.5" stroke-linecap="square" stroke="#fff" transform="translate(209,40)" style="animation: 2s linear infinite both g_d;"/><path d="M0-40c75.2 0 118 140.2 118 219.5c0 78-47 219.5-118 219.5" stroke-linecap="square" stroke="#fff" transform="translate(209,40)" style="animation: 2s linear infinite both h_d;"/></g><path d="M1 218.5l455 .2" stroke="#fff" stroke-width=".5" stroke-linecap="square"/></g></svg>