<svg width="729" height="1082" viewBox="0 0 729 1082" fill="none" xmlns="http://www.w3.org/2000/svg">
<rect width="246.057" height="266.918" rx="19.7768" transform="matrix(1 0 0 -1 0.738281 1081.25)" fill="#ADC289"/>
<rect width="574.942" height="229.672" rx="19.7768" transform="matrix(1 0 0 -1 153.398 229.672)" fill="#ADC289"/>
<path d="M551.266 229.605C551.266 229.605 527.341 104.522 500.943 89.7462C478.325 77.1015 450.876 71.1912 425.558 73.3507C400.241 75.5103 399.417 96.3953 397.456 112.08C395.495 127.765 392.938 154.447 385.209 166.182C377.48 177.918 342.672 218.295 342.672 218.295L363.784 227.701C363.784 227.701 397.683 201.104 409.589 191.528C418.938 184.027 420.159 170.075 420.159 170.075C420.159 207.128 425.274 229.605 425.274 229.605H551.238H551.266Z" fill="white"/>
<path d="M486.082 82.6699C501.767 88.495 506.569 91.1944 524.243 113.671C541.917 136.147 547.629 158.907 547.771 165.698C547.941 175.7 543.622 187.351 527.596 197.75C511.57 208.15 481.195 223.551 481.195 223.551L460.594 215.652C460.594 215.652 492.22 189.851 497.846 183.6C503.472 177.348 504.722 170.273 503.245 163.198C501.767 156.123 491.168 111.795 491.168 111.795L486.082 82.6699Z" fill="white"/>
<path d="M465.168 207.98C457.638 208.548 444.027 213.748 441.641 229.603H447.494C448.688 234.093 451.444 234.263 452.467 234.263C453.49 234.263 454.172 233.922 455.564 232.729C456.928 235.315 458.178 236.679 460.565 236.849C462.952 237.02 464.657 234.775 465.168 233.24C466.021 235.144 466.703 236.338 469.8 236.849C472.897 237.361 474.772 234.434 474.943 233.07C476.307 234.604 478.381 236.167 481.308 235.315C484.235 234.462 486.991 228.637 486.11 223.551C485.229 218.465 481.478 206.786 465.14 207.98H465.168Z" fill="#FEB36D"/>
<path d="M438.347 105.546C444.968 111.002 447.44 114.099 452.214 110.292C456.987 106.484 463.608 96.2546 461.903 83.3826C460.823 75.3696 456.447 66.4189 456.447 66.4189C456.447 66.4189 461.988 58.4627 454.231 44.994C449.059 35.9865 438.745 26.1265 421.355 27.462C403.965 28.7975 392.4 48.6596 405.102 75.2844C420.133 106.74 432.266 111.286 438.347 105.575V105.546Z" fill="#FEB36D"/>
<path d="M466.274 59.9948C466.274 51.1009 466.274 40.0191 453.601 27.2892C440.246 13.8774 422.629 14.1047 412.854 17.9975C403.08 21.8904 389.384 34.2509 392.339 51.0441C393.475 55.4768 395.521 59.1708 400.494 61.3872C399.812 53.6299 399.272 46.6966 402.994 41.8377C406.717 36.9787 404.415 47.8048 408.734 48.3731C413.735 49.0267 413.764 39.6781 419.333 36.2683C426.01 32.205 433.029 36.4104 435.7 40.9568C439.081 46.6966 436.496 59.3981 441.667 59.5402C444.423 59.6254 444.793 48.6573 449.225 47.9185C453.658 47.1797 460.591 62.1259 455.505 65.6494C455.903 75.2821 460.137 75.8219 460.137 75.8219C463.632 73.8045 466.303 65.9904 466.303 60.0232L466.274 59.9948Z" fill="#1D1D1B"/>
<path d="M357.078 215.168C344.376 213.037 341.592 219.686 335.71 221.845C327.612 224.8 323.832 229.091 325.225 232.188C326.844 235.854 330.993 232.614 331.703 231.677C331.334 232.671 331.249 235.115 332.982 236.394C337.244 239.548 346.451 241.253 355.004 237.871C362.533 234.888 365.233 228.494 365.233 223.806C365.233 220.055 362.391 216.077 357.078 215.196V215.168Z" fill="#FEB36D"/>
<path d="M380.833 248.329C373.133 230.115 352.049 221.562 333.864 229.262C317.525 236.167 309.001 253.813 312.95 270.521L309.455 271.999C307.324 272.908 306.33 275.352 307.239 277.454L315.536 297.089L259.53 294.901C259.104 294.901 258.706 295.214 258.678 295.668L258.365 299.76C258.337 300.186 258.649 300.584 259.104 300.641L309.37 306.011C315.877 306.722 321.986 309.251 327.47 312.859C335.625 318.201 346.309 319.281 355.828 314.621C365.205 310.018 370.746 300.754 371.457 290.866C371.542 289.786 371.996 288.82 372.764 288.053C376.316 284.643 379.129 280.495 381.061 275.806C384.669 266.941 384.584 257.194 380.862 248.357L380.833 248.329ZM378.39 274.698C376.742 278.761 374.355 282.398 371.371 285.439C371.059 282.512 370.348 279.585 369.155 276.801L360.005 255.177C359.096 253.046 356.652 252.051 354.55 252.961L315.564 269.413C314.115 262.934 314.655 256.171 317.184 249.863C320.509 241.68 326.788 235.315 334.915 231.877C339.092 230.115 343.439 229.262 347.73 229.262C360.602 229.262 372.877 236.849 378.191 249.437C381.629 257.564 381.686 266.543 378.361 274.698H378.39Z" fill="#657310"/>
<path d="M332.582 236.082C329.4 233.298 332.469 227.53 336.987 226.876C341.164 226.279 341.618 230.74 341.618 230.74C342.954 228.183 342.897 225.654 346.676 224.802C350.455 223.949 351.62 229.575 351.62 229.575C352.075 225.995 353.95 223.722 355.911 224.375C359.037 225.427 355.968 229.575 360.031 232.417C358.809 235.628 338.72 241.453 332.611 236.054L332.582 236.082Z" fill="#FEB36D"/>
<path d="M258.643 295.668C249.778 295.668 218.869 295.997 211.823 359.22C204.776 422.444 192.141 1055.21 192.141 1055.21H199.659C200.682 1011.05 216.86 385.732 219.417 359.22C221.975 332.709 228.95 298.481 258.331 299.788L258.643 295.696V295.668Z" fill="#406CC9"/>
<path d="M110.293 880.955C104.554 871.976 82.1057 863.565 69.9726 878.511C56.447 895.162 52.27 932.642 84.2084 947.559C86.2827 938.552 94.722 934.943 100.178 932.301C113.817 925.68 129.473 918.576 132.457 902.493C136.35 881.466 118.505 877.147 110.322 880.983L110.293 880.955Z" fill="#657310"/>
<path d="M132.883 942.134C127.654 936.763 117.226 936.081 112.396 944.151C108.304 951.028 108.73 968.332 125.239 973.561C126.433 967.622 131.633 964.184 134.843 961.285C138.054 958.387 142.998 955.375 141.578 948.726C140.157 942.077 134.843 941.622 132.883 942.134Z" fill="#657310"/>
<path d="M221.536 955.831C212.358 954.58 213.779 941.765 220.115 936.849C226.452 931.934 241.938 925.824 260.493 929.092C256.828 932.36 252.935 935.003 253.759 941.936C255.208 954.325 250.292 962.139 239.779 964.781C229.265 967.424 221.735 960.121 221.536 955.831Z" fill="#657310"/>
<path d="M242.537 981.489C235.604 981.092 224.977 984.757 221.34 990.866C217.475 997.402 217.873 1005.56 225.431 1011.87C232.99 1018.17 263.166 1026.56 268.253 1033.29C273.765 1025.73 278.454 1009.42 277.431 997.601C276.408 985.78 267.855 976.602 259.472 975.38C251.09 974.158 245.208 977.824 242.537 981.489Z" fill="#657310"/>
<path d="M114.756 980.748C123.82 975.434 137.573 981.998 137.885 994.813C138.198 1007.63 127.116 1014.7 117.256 1017.94C107.396 1021.18 96.3712 1019.51 87.0511 1029.85C79.2369 1015.13 78.1572 993.563 92.2226 984.186C101.315 978.105 108.476 977.935 114.727 980.748H114.756Z" fill="#657310"/>
<path d="M166.982 879.394C167.493 865.328 178.888 858.168 191.22 861.407C203.552 864.646 227.932 882.036 222.874 919.658C217.901 913.719 211.536 915.225 206.819 915.907C202.103 916.589 173.943 921.192 162.066 909.826C152.888 901.046 155.985 885.361 166.982 879.422V879.394Z" fill="#657310"/>
<path d="M109.638 885.475C132.91 898.859 183.09 939.691 180.817 1057.02C179.965 1057.44 178.146 1057.02 178.146 1057.02C177.919 1046.05 178.26 923.04 105.404 885.475C105.035 884.538 109.638 885.475 109.638 885.475Z" fill="#657310"/>
<path d="M225.093 951.768C201.395 974.443 171.872 1004.85 173.008 1057.22C173.378 1057.84 175.651 1057.22 175.651 1057.22C177.924 1035.96 171.502 1004.42 223.985 955.831L225.121 951.768H225.093Z" fill="#657310"/>
<path d="M242.538 981.489C221.027 979.756 190.766 989.871 180.82 1060.26C181.36 1060.99 183.094 1060.26 183.094 1060.26C183.094 1060.26 190.339 980.864 240.151 983.876C240.889 985.012 242.566 981.489 242.566 981.489H242.538Z" fill="#657310"/>
<path d="M183.973 1058.35C188.263 1049.17 198.152 1027.12 211.677 1016.89C203.352 1027.83 195.452 1035.65 187.695 1058.86C187.326 1058.86 183.973 1058.35 183.973 1058.35Z" fill="#657310"/>
<path d="M132.884 946.766C174.824 986.774 173.091 1040.53 174.966 1063.27C174.966 1063.64 171.216 1063.27 171.216 1063.27C173.745 1044.17 166.726 975.237 129.645 947.561C130.014 947.959 132.855 946.766 132.855 946.766H132.884Z" fill="#657310"/>
<path d="M112.084 984.871C137.856 974.898 171.613 1011.38 171.613 1058.86C171.613 1059.18 167.124 1059.01 167.124 1059.01C173.574 1041.79 152.319 976.773 112.084 988.025C112.027 988.025 112.084 984.9 112.084 984.9V984.871Z" fill="#657310"/>
<path d="M164.766 880.984C172.04 897.01 180.962 1013.43 177.155 1063.27C179.996 1062.13 183.662 1061.59 183.69 1060.6C184.912 1023.8 177.78 914.116 167.92 884.053C168.658 884.423 164.766 880.984 164.766 880.984Z" fill="#657310"/>
<path d="M166.497 1055.05C165.019 1045.82 162.945 1037.92 154.875 1030.56C160.018 1037.78 163.201 1047.83 163.911 1055.42C164.309 1055.71 166.497 1055.05 166.497 1055.05Z" fill="#657310"/>
<path d="M221.424 1053.35H132.883L135.44 1081.26H218.866L221.424 1053.35Z" fill="#FEB36D"/>
</svg>
