<svg width="300" height="212" viewBox="0 0 300 212" fill="none" xmlns="http://www.w3.org/2000/svg">
<g clip-path="url(#clip0_778_2896)">
<path d="M292.276 -0.591575C292.502 -0.806077 292.859 -0.796431 293.074 -0.570031C293.288 -0.34363 293.279 0.0137914 293.052 0.228293L292.276 -0.591575ZM113.37 41.3242L113.486 41.8768L113.37 41.3242ZM293.052 0.228293C283.95 8.85196 270.472 15.2558 254.853 20.1444C239.224 25.0358 221.398 28.426 203.554 30.9912C185.709 33.5565 167.828 35.2993 152.092 36.8904C136.342 38.483 122.765 39.9216 113.486 41.8768L113.254 40.7717C122.605 38.8012 136.25 37.3571 151.978 35.7667C167.722 34.1749 185.577 32.4345 203.393 29.8733C221.211 27.3119 238.969 23.932 254.515 19.0665C270.07 14.1982 283.357 7.85841 292.276 -0.591575L293.052 0.228293ZM113.486 41.8768C68.2929 51.4002 39.5385 75.4972 23.5532 101.016C7.54485 126.573 4.3742 153.489 10.2182 168.655L9.16432 169.061C3.14952 153.452 6.47299 126.156 22.5961 100.417C38.7422 74.6408 67.7565 50.359 113.254 40.7717L113.486 41.8768Z" fill="#657310"/>
<path d="M28.2759 172.949C22.012 163.666 14.0749 165.904 9.37996 169.167C-0.51188 179.148 9.39625 191.451 11.721 195.456C14.0457 199.461 20.6179 209.481 24.623 207.156C29.5524 204.295 22.8737 197.283 20.3479 192.28C21.4396 193.338 23.7901 193.292 25.6391 192.182C27.4882 191.073 28.0386 187.384 27.3734 186.311C28.1648 187.132 30.5081 187.597 31.7805 185.983C33.053 184.368 33.5254 180.984 31.6687 178.07C30.7577 176.64 29.6292 174.954 28.2759 172.949Z" stroke="#657310" stroke-width="1.12941"/>
</g>
<defs>
<clipPath id="clip0_778_2896">
<rect width="300" height="212" fill="white"/>
</clipPath>
</defs>
</svg>
