<svg width="65" height="65" viewBox="0 0 65 65" fill="none" xmlns="http://www.w3.org/2000/svg">
<path d="M24.7823 26.5707C26.4716 22.0867 36.0272 12.5347 41.3732 7.37564C46.7191 2.21661 59.7105 12.7748 54.0185 19.1336C48.3266 25.4923 43.1831 30.8721 43.1831 30.8721L27.1956 30.2204L28.7038 36.2163L31.7203 34.6521C32.5247 34.1742 34.6162 33.3487 36.5468 33.8701C38.4773 34.3914 37.7534 36.4335 37.1501 37.3894C37.6025 37.0418 38.9298 36.5552 40.619 37.3894C42.3083 38.2236 41.8257 40.0832 41.3732 40.9088C42.2781 40.6046 44.1182 40.7002 44.2389 43.5157C44.3897 47.0351 40.3399 50.7247 37.7759 51.7675C35.2118 52.8103 28.8052 47.4839 26.392 45.5287C23.9788 43.5735 22.6708 32.1756 24.7823 26.5707Z" fill="#FCFCFC" stroke="black" stroke-width="1.5"/>
<path d="M21.1326 23.3318L17.1069 19.0126C9.71995 13.1335 19.883 3.17451 28.9072 11.333L37.9307 19.0126C39.1955 21.1263 49.0371 35.3301 49.788 39.1991C50.3351 42.0184 48.0653 53.6869 44.5946 52.967C42.3143 52.4941 43.4384 50.5675 43.6041 48.0627C43.9057 43.5005 33.3907 37.8288 31.1284 38.0895C28.866 38.3502 27.2155 46.8687 24.0481 46.608C20.8808 46.3473 21.6881 42.5332 21.6881 40.969C21.6881 39.4049 23.2728 34.3617 23.846 31.7693C24.4646 28.9712 22.4492 25.7522 21.1326 23.3318Z" fill="#FCFCFC" stroke="#050505" stroke-width="1.5"/>
<path d="M46.2109 42.9343C44.9615 46.1737 42.9128 47.501 40.6138 49.0463L28.8633 42.2027L30.9069 36.1823L32.0505 34.2959C32.6572 33.8271 35.7988 31.5364 37.7424 32.7362C39.3119 33.705 39.1787 35.2264 38.5754 36.1823C39.0279 35.8347 40.7966 35.1357 42.4249 36.1823C44.2839 37.3772 43.6315 38.8761 43.179 39.7017C44.084 39.3975 47.2418 40.2614 46.2109 42.9343Z" fill="#FCFCFC"/>
<path d="M26.8281 44.4103L30.9153 36.1823L32.0589 34.2959C32.6656 33.8271 35.8073 31.5364 37.7508 32.7362C39.3203 33.705 39.1871 35.2264 38.5838 36.1823C39.0363 35.8347 40.8051 35.1357 42.4333 36.1823C44.2923 37.3772 43.6399 38.8761 43.1875 39.7017C44.0924 39.3975 47.2503 40.2614 46.2193 42.9343C44.9699 46.1737 42.1549 49.0463 39.8559 50.5916" stroke="black" stroke-width="1.5" stroke-linejoin="bevel"/>
</svg>
