<svg width="149" height="188" viewBox="0 0 149 188" fill="none" xmlns="http://www.w3.org/2000/svg">
<path d="M1.50215 0.575468C1.20944 0.29814 0.747327 0.310611 0.47 0.603322C0.192672 0.896033 0.205142 1.35814 0.497853 1.63547L1.50215 0.575468ZM112.364 22.0726L112.865 21.5414L112.865 21.5414L112.364 22.0726ZM0.497853 1.63547C12.2381 12.7587 22.9188 17.5592 32.9189 18.9808C42.8977 20.3993 52.1242 18.4401 60.9045 16.1882C69.728 13.9253 78.0389 11.3901 86.3955 11.4882C94.6873 11.5855 103.038 14.2842 111.864 22.6039L112.865 21.5414C103.779 12.976 95.0791 10.1298 86.4127 10.0281C77.811 9.92711 69.2568 12.5387 60.5417 14.7738C51.7833 17.02 42.7977 18.9102 33.1244 17.5351C23.4723 16.163 13.0608 11.5266 1.50215 0.575468L0.497853 1.63547ZM111.864 22.6039C122.858 32.9689 125.22 44.3773 123.142 56.2302C121.051 68.1521 114.469 80.5123 107.524 92.6765C100.611 104.784 93.3233 116.718 90.0186 127.633C88.3615 133.106 87.6857 138.381 88.5836 143.338C89.4843 148.312 91.9596 152.914 96.5095 157.041L97.4905 155.959C93.1633 152.034 90.8602 147.715 90.0204 143.078C89.1777 138.425 89.7991 133.397 91.4162 128.056C94.6599 117.343 101.828 105.597 108.792 93.4006C115.724 81.2603 122.439 68.6908 124.58 56.4824C126.733 44.2051 124.259 32.2827 112.865 21.5414L111.864 22.6039Z" fill="#657310"/>
<path d="M102.97 180.823C90.868 172.876 93.6328 162.578 97.7745 156.456C110.518 143.506 126.584 156.116 131.799 159.056C137.015 161.997 150.074 170.331 147.134 175.546C143.515 181.965 134.342 173.445 127.833 170.261C129.219 171.655 129.197 174.694 127.793 177.103C126.388 179.511 121.628 180.282 120.231 179.44C121.304 180.45 121.943 183.471 119.877 185.143C117.81 186.814 113.443 187.479 109.645 185.126C107.782 183.972 105.585 182.54 102.97 180.823Z" stroke="#657310" stroke-width="1.46021"/>
</svg>
