<svg xmlns="http://www.w3.org/2000/svg" width="564" height="722" viewBox="0 0 564 722" fill="none"><style>
@keyframes a_t { 0% { transform: translate(280.9px,427.3px) rotate(-10deg) translate(-280.9px,-427.3px); animation-timing-function: cubic-bezier(.4,0,.6,1); } 50% { transform: translate(280.9px,427.3px) rotate(5deg) translate(-280.9px,-427.3px); animation-timing-function: cubic-bezier(.4,0,.6,1); } 100% { transform: translate(280.9px,427.3px) rotate(-10deg) translate(-280.9px,-427.3px); } }
@keyframes b_t { 0% { transform: translate(412.3px,497.3px) rotate(-2deg) translate(-48.1px,-48.6px); } 50% { transform: translate(412.3px,497.3px) rotate(3deg) translate(-48.1px,-48.6px); } 100% { transform: translate(412.3px,497.3px) rotate(-2deg) translate(-48.1px,-48.6px); } }
@keyframes c_d { 0% { d: path('M474.5,698.1C471.3,700.6,463.7,700.3,461.2,694.7C458.1,688,459.7,683.1,459.7,674.4C459.7,666.7,460,654.8,456.7,648.2C452.8,640.3,453.5,633,430.5,627.7C428.1,631.5,432.6,643.9,432.6,643.9L448.9,650.1C451.9,653,454,666.7,454,674.4C454,684.1,451.5,689.4,456.7,698.2C461.9,706.9,472.4,704.9,475.8,703.6C481.5,701.4,486.6,693.1,481.5,692.4C479.6,692.4,477.1,695.8,474.5,698.1Z'); animation-timing-function: cubic-bezier(.3,0,.6,1); } 50% { d: path('M467.9,706.1C464.7,708.6,457,708.3,454.5,702.7C451.5,696,454.6,687,455.3,678.3C456.1,669.7,457.1,660.5,456.7,653.7C456.4,646.8,453.5,633,430.5,627.7C428.1,631.5,432.6,643.9,432.6,643.9L448.9,650.1C451.9,653,451,667.2,450.1,676.8C449.1,686.5,444.9,697.4,450.1,706.2C455.3,714.9,465.8,712.9,469.2,711.6C474.9,709.4,479.9,701.1,474.9,700.4C474.9,700.4,471.1,703.5,467.9,706.1Z'); animation-timing-function: cubic-bezier(.4,0,.6,1); } 100% { d: path('M474.5,698.1C471.3,700.6,463.7,700.3,461.2,694.7C458.1,688,459.7,683.1,459.7,674.4C459.7,666.7,460,654.8,456.7,648.2C452.8,640.3,453.5,633,430.5,627.7C428.1,631.5,432.6,643.9,432.6,643.9L448.9,650.1C451.9,653,454,666.7,454,674.4C454,684.1,451.5,689.4,456.7,698.2C461.9,706.9,472.4,704.9,475.8,703.6C481.5,701.4,486.6,693.1,481.5,692.4C479.6,692.4,477.1,695.8,474.5,698.1Z'); animation-timing-function: cubic-bezier(.3,0,.6,1); } }
@keyframes d_t { 0% { transform: translate(147.3px,316.7px); animation-timing-function: cubic-bezier(.4,0,.6,1); } 50% { transform: translate(156.3px,323.4px); animation-timing-function: cubic-bezier(0,0,.6,1); } 100% { transform: translate(147.3px,316.7px); } }
</style><rect width="294.6" height="305.3" rx="14" fill="#f3f0ec"/><rect x="214.9" y="436.6" width="349.1" height="261.6" rx="14" fill="#f3f0ec"/><path d="M422.3 549.4c-2.1-1.8-4.1 .2-3-10.3c10.2-5.1 17.4-10.2 20.9-21.9c3.5-11.8 8.6-27.6-4.8-44.5c-13.4-16.9-39.7-11.8-48.2-1.6c-8.6 10.2-21.8 28.1-17.6 50.7c4.2 22.5 40.4 11.7 40.4 11.7l-28.7-1.8c.5 7.2-1.8 11.8-6 15.9c-2.6 8.5-1.8 16-1.8 16l33 15.5l17.6-21.7l-1.8-8Z" fill="#feb36d"/><path d="M455.6 649.2c-16.3 9.8-55.3 19.2-58 21c1.6 6.5-4.6 21.3-19.4 23.2c-0.4 8.3 4.7 8.6 15.5 10.1c10.9 1.4 85-9.4 89-32.9c4-23.6-13.4-66.6-19.1-83.6c-5.8-17-34.4-35.1-41.3-37.6c0 0 2.2 8.7-16.3 14.5c-18.4 5.8-29.3-3.6-30.7-16.3c0 0-6.6-2.2-22.1-11.3c-15.6-9-35-40.7-38-50.3c-3.7-12.4-9-34.2-12.3-47.5c-8.7-2.1-32.2 4-33.2 7.5c-2 7.2-4.3 16 2.5 47.2c6.9 31.2 24.6 59.8 34 79.7c9.4 19.9 18.1 79.1 13.4 125.3h95.5l40.5-49Z" fill="#adc289"/><path d="M295.2 422.2c2.6 .3 3.7-9.9 8.4-9.8c4.7 .1 5.5 7 3.9 16.2c-1.6 9.3-6.1 18.5-13.2 21.9c-5.3 2.6-13.7 5.6-24.2-1.4c-10.4-6.9-19.4-20.8-15.8-25.8c3.1-4.2 7.6-1.8 10.7 4.4c-4.2-11.4-5.2-16.6-2.3-18.1c2.9-1.6 6.2-1.3 11.5 12.6c-4.1-12.4-4.3-19.6 .4-21c3.7-1 6.6 3.8 8.8 17.2c-1.3-10.7 .8-17.6 4.7-16.9c3.9 .7 4.3 9.6 4.5 14.1c.1 4.6 .8 6.5 2.7 6.6h-0.1Z" fill="#feb36d" transform="translate(280.9,427.3) rotate(-10) translate(-280.9,-427.3)" style="animation: 4s linear infinite both a_t;"/><g transform="translate(412.3,497.3) rotate(-2) translate(-48.1,-48.6)" style="animation: 4s linear infinite both b_t;"><path d="M95.3 41.7c-1.2-2 .7-4.9 0-10c-0.8-5.1-2-10.4-5.6-10.2c-3.7 .3-10 4.2-11.4-4.3c-1.5-8.5-2.9-13.1-10.2-14.6c-7.3-1.4-12.9 4.3-18.2 0c-4.6-3.6-10.7-3.4-13.1 .3c-2.5 3.6-6.1 5.1-7.5 3.4c-1.5-1.7-10.7-1.5-12.2 5.1c-1.4 6.5-3.6 9.4-7 11.6c-3.4 2.2-8.5 4.7-6.6 10.7c2 6.1-5.6 6.6-2.9 12.9c2.5 5.8-3 10.5 4.5 11.2c0 0 2.6-13 8.5-22.4c12.6-20.2 25.3-22 34.6-18.9c9.9 3.2 18.7 8.2 24.7 19.9c4.4 8.4 3.6 20.6 2.3 26.2c-12.4 29.1-31.2 16.7-34.6 3.9c-2-7.6-14.5-8.8-19.6-4.9c-5.1 3.9-10.1 9.2-16.3 .5c-4.7 7.3 .3 21 3.6 24.6c8.8 9.9 18.3 10.9 28.5 10.4c13.1-0.8 19.3-4.6 26.8-11.4c1.5 3.2 7.9 4.6 11.3 2.4c3.4-2.2 4.8-8.8 8.5-9.3c3.6-0.5 7.3-9 7.3-14.1c0-5.1-0.3-8.2 3.1-10.7c3.4-2.4 2.7-10.4 1.5-12.3Zm-68.6 35.8c-5.8 .3-8.9-4.4-8.4-8c4.9-2.7 16.9-0.4 21.3 4.8c-3.3 1.4-7.1 2.9-12.9 3.2Z" fill="#282828"/></g><path d="M378.9 628.7c-3.2-3.5-9.1-4.6-9.1-4.6c-2.4 10.1-3 32 0 41.7c3 9.8 13.1 12.5 13.1 12.5l14.7-8.1c0 0 3.8-0.6 34.6-10.3c14.7-4.7 22.1-16.2 22.1-16.2c-3.7-7.5-16.7-24.9-46.8-12.5c-0.7-3.4-1.9-7.2-1.9-7.2c-5.9 1.9-8.6 5.5-8.6 5.5c-4.8-3.4-13.4-3.3-18.1-0.8Z" fill="#282828"/><path d="M397.6 670.2c-5.7-2.1-10.2-4.4-12.9-1.2c-2.6 3.1-8.9 4.5-11.2 2.8c-2.4-1.7-3.9-6-3.9-6c-4.6 5.9-12.1 22 8.6 27.6c1.6 .1 23.1-2.5 19.3-23.2h.1Z" fill="#feb36d"/><path d="M474.5 698.1c-3.2 2.5-10.8 2.2-13.3-3.4c-3.1-6.7-1.5-11.6-1.5-20.3c0-7.7 .3-19.6-3-26.2c-3.9-7.9-3.2-15.2-26.2-20.5c-2.4 3.8 2.1 16.2 2.1 16.2l16.3 6.2c3 2.9 5.1 16.6 5.1 24.3c0 9.7-2.5 15 2.7 23.8c5.2 8.7 15.7 6.7 19.1 5.4c5.7-2.2 10.8-10.5 5.7-11.2c-1.9 0-4.4 3.4-7 5.7Z" fill="#282828" transform="translate(.3,.8)" style="animation: 4s linear infinite both c_d;"/><path d="M260.4 147.1c-3.3 18-37.5 57.9-57.4 56.1c-2.8-0.3-5.4-1.3-7.5-2.7l-3.9 9.8l-25.1-12.3v-41.1c8.1-3.3 10.1-3.9 10.1-3.9l-3.3-5.7l6.8-27.5l41.4-7.5l35 9.5c0 0 7.2 7.3 3.9 25.3Z" fill="#feb36d"/><path d="M258.9 267.7c8.9-3 14.3-6.4 15.1-19.2c1.1-17.4-2.4-29-6-40.3c-3.6-11.3 .6-19.6 6.8-28.5c6.3-8.9 20.3-49.4-3.1-57.3c-0.1-14.2-8.5-30.5-32.2-37.7c-20.4-6.1-35.2-3.8-45.1 14.3c-8.9 16.4-23.8 6.2-33.9 27.6c-10.6 22.5-28.3 23.2-23.6 41.3c8.3-4.2 36.1-9.1 36.1-9.1c3.5-1.7 8.3-4.9 8.3-4.9c-0.7-6.7 1.9-22 8.8-23.6c6.8-1.5 5.4 6.6 6.6 7.4c1.3 .9 3.9 .7 7.6-3.7c3.7-4.4 6.9-6.4 13.9-7.4c8.7 6 25.5 17.4 42.2 7.9c1.2 11.5-2.8 24.7-20.8 45.9c5.5 4.9 13 16.9 16.7 33.2c3.8 16.3 2.7 54.1 2.7 54.1h-0.1Z" fill="#1d1d1b"/><path d="M102 305.6c9.9 37.1 23 57.5 31.1 67.7c6.2 7.8 21.1 20.1 27.5 20.1c0 0 10.2-31.9 12.2-34.2c-25.4-24.2-35.9-68.2-25.9-132.9c-0.7 62.1 4.5 77.7 10.1 79.3h51.7c0 0 6.3-1.8 10.3-23.8c0 23.8 15.4 64.9 15.4 64.9c0 0 24.9-2.4 31.6-4.1c-2-3.8-6.7-59-7-96.7c-0.4-37.7-7.9-53.3-19.5-65.5c0 0-7.5 8.9-18.9 14.5c-11.4 5.7-19.7 2.3-22-7.7c-4.3 2.6-13.4 14.3-19.1 6.3c-5.7-8-8.4-24.1-6.5-34.6c-47.9 1.2-66 16.1-82.3 44.3c-16.4 28.2-35.6 67.2-53.7 102.4h65Z" fill="#adc289"/><g transform="translate(245.4,373.3) translate(-98.1,-56.6)" style="animation: 4s linear infinite both d_t;"><path d="M31.1 100.5c-0.6 5.7-6.3 12.6-6.3 12.6c-1.1-0.1-2.9-1.3-2.9-2.1c1.6-2.3 4.4-7.1 5-9.6c.7-0.1 4.2-0.9 4.2-0.9Z" fill="#282828"/><path d="M194.1 0l-27.5 6.1l.6 2.8l27.5-6.2l1.5-1.8l-2.1-0.9Z" fill="#d96237"/><path d="M57 59.7c-2.7 2.5-3 4.9-1.1 9.8c1.8 4.9-13.3 4.3-13.3 4.3l6.1-13.6l8.3-0.5Z" fill="#282828"/><path d="M140.7 23.4c-0.6-0.2-1.3-0.1-1.8 .4l-4.3-19.2c.7 .3 1.4 .1 1.8-0.4l4.3 19.2Z" fill="#d96237"/><path d="M151.8 2.2l2.7-0.6c2.6-0.6 5.2 1 5.8 3.6l1.6 7.2c.6 2.6-1.1 5.2-3.7 5.7l-2.7 .6l-3.7-16.5Z" fill="#d96237"/><path d="M167.4 9.4l-5.6 2.8l-1.5-6.9l6.2 .3l.9 3.8Z" fill="#282828"/><path d="M154.4 21.4l-11.5 3.1c-1 .3-2-0.3-2.2-1.3l-4.2-18.9c-0.2-0.9 .4-1.9 1.4-2.1l11.8-2c.9-0.2 1.8 .4 2 1.3l4 17.8c.2 .9-0.3 1.8-1.3 2v.1Z" fill="#282828"/><path d="M138.7 26.2l-7 3.3c-0.5 .3-1.2-0.1-1.4-0.7l-5.6-25.1c-0.1-0.6 .3-1.2 1-1.2l7.7 .1c.4 0 .8 .3 .9 .8l4.9 21.7c.1 .4-0.1 .9-0.5 1.1Z" fill="#282828"/><path d="M124.7 3.8c-0.2-1.1-1.3-1.8-2.4-1.5l-73.8 16.4c-7.3 1.7-18 5.3-22.3 25.2c-4.2 19.9-4.4 43.2-4.2 51c.1 6.4 2 7.2 3.1 6.9c1.5-0.3 3.9-0.8 6-1.3c2.2-0.5 4.3-0.4 6.1-7.3c1.9-6.8 7.1-24.6 12.5-31.5l42.8-9.5c9.2-2.1 29.8-15.2 36.5-19.4c1.2-0.7 1.8-2.1 1.5-3.4l-5.8-25.6Z" fill="#d96237"/><path d="M171.5 7.9c2.6-0.6 2-3.4 4.6-3.9l-4.3 .9c-2.6 .6-2 3.4-4.6 3.9l4.3-0.9Z" fill="#282828"/><path d="M180.1 6c2.6-0.6 2-3.4 4.6-3.9l-4.3 .9c-2.6 .6-2 3.4-4.6 3.9l4.3-0.9Z" fill="#282828"/><path d="M188.7 4c2.6-0.5 2-3.3 4.6-3.9l-4.3 1c-2.6 .6-2 3.3-4.6 3.9l4.3-1Z" fill="#282828"/><path d="M78.5 62.8c2.5 6.7 13.3 13.3 26.2 7.3c11-5.2 14.5-10 16-15.9c1.6-6.7-0.5-13.1-2.2-14.9c-3.5 2.1-5.1 3-5.1 3c-1.8-2.6-8.9-3.6-8.7 1.8c-2.9-3.2-8.9-1.7-9.4 3.2c-3.7-3-10.5-1.1-9.8 4.3c-4.6-3.4-9.9 3.3-7 11.2Z" fill="#feb36d"/><path d="M1.5 50.4c2.3-7.9 10.4-16.3 28.9-18.5c-1.7 3.1-3 7.4-3 7.4c4.1-1.5 8.3-1.8 10.4 .6c1.7 1.9 2.8 6.5-4.2 9c8.4 3 9.7 10.8 2.2 11.9c6.8 5.2 .6 13-5 12.3c3.8 10.1-10.3 9.7-17.6 4.5c-7.3-5.3-16.9-9.4-11.7-27.2Z" fill="#feb36d"/></g></svg>