<svg width="706" height="684" viewBox="0 0 706 684" fill="none" xmlns="http://www.w3.org/2000/svg">
<rect x="272.109" y="327" width="333.782" height="301" rx="9.93399" fill="#D9D9D9"/>
<rect x="272.109" y="327" width="333.782" height="301" rx="9.93399" fill="#D9D9D9"/>
<path d="M545.842 672.493C543.382 661.803 542.042 650.873 538.932 640.313C538.692 638.553 538.402 636.803 538.212 635.033C537.982 632.853 536.852 630.513 539.142 628.693C545.552 628.733 551.752 627.323 557.992 626.143C559.932 626.143 561.872 626.143 563.812 626.143C566.142 626.303 568.362 626.663 569.312 629.263C564.832 632.073 559.862 629.823 555.192 630.633C552.812 630.553 549.292 629.733 549.132 632.793C549.002 635.153 552.812 634.433 554.822 635.193C555.872 635.583 557.092 635.343 558.032 634.493C558.662 634.573 559.292 634.653 559.922 634.733C563.072 637.543 566.572 636.513 570.042 635.623C572.022 635.663 574.002 635.693 575.972 635.733C579.642 636.693 583.292 637.143 586.852 635.303C587.592 635.233 588.342 635.163 589.082 635.103C590.132 636.623 590.652 635.833 591.072 634.643C592.062 634.573 593.062 634.503 594.052 634.433C594.692 634.703 595.332 634.963 595.972 635.233C597.082 635.303 598.192 635.373 598.952 634.303C599.222 634.133 599.512 634.033 599.832 634.033C600.572 634.123 601.302 634.213 602.042 634.303C603.612 635.533 603.802 634.563 603.752 633.223C603.752 633.223 603.762 632.823 603.772 632.823C604.722 633.323 605.432 633.033 605.972 632.173C609.632 632.833 613.042 630.873 616.662 631.173C615.832 642.883 613.272 654.343 611.652 665.933C611.352 668.053 611.182 670.193 610.952 672.323C606.962 682.653 605.522 683.613 594.022 683.603C583.562 683.603 573.102 683.603 562.652 683.603C551.772 683.613 550.122 682.533 545.842 672.493Z" fill="#B7B7B7"/>
<path d="M413.161 513.401C413.291 519.461 411.441 525.231 410.391 531.101C409.961 533.511 410.341 535.091 412.371 536.661C419.361 542.081 426.391 547.371 434.671 550.741C441.841 553.661 447.831 559.011 455.711 560.571C458.051 561.031 460.121 562.881 461.221 565.321C458.791 566.941 457.271 568.671 459.211 571.821C461.161 574.991 463.351 574.401 465.971 572.981C466.781 572.541 467.891 572.641 468.861 572.491C468.011 575.311 467.161 578.131 466.301 580.961C464.691 587.081 460.281 590.561 454.871 593.091C450.711 594.241 446.561 591.631 442.401 593.061C441.071 590.501 439.451 588.161 437.151 586.361C435.671 582.521 433.371 579.051 432.721 574.811C432.271 571.881 429.751 570.101 427.111 568.811C421.281 565.961 415.361 563.271 409.621 560.241C405.971 558.311 405.321 560.091 405.151 563.141C404.951 566.961 404.821 570.781 404.441 574.591C403.031 589.011 399.951 603.181 397.581 617.451C396.771 622.301 398.721 625.241 403.241 626.411C406.771 627.321 410.421 627.751 414.021 628.391C417.631 630.331 421.251 632.251 424.851 634.211C427.271 635.531 429.201 637.201 428.681 640.371C427.071 640.641 425.451 640.881 423.841 641.171C419.701 641.931 416.031 641.831 413.971 637.181C413.261 635.571 411.661 633.731 409.731 634.831C407.991 635.821 410.071 637.391 410.221 638.751C410.341 639.831 411.451 641.071 410.201 641.911C408.001 643.381 406.651 641.031 404.901 640.421C400.201 634.621 392.001 635.821 386.731 630.781C387.661 633.841 390.251 636.201 387.751 639.231C386.571 639.241 385.391 639.251 384.221 639.271C381.021 636.021 375.981 633.551 379.221 627.551C381.831 624.641 381.371 620.781 382.121 617.371C384.841 605.071 381.221 592.741 381.861 580.411C381.861 579.751 381.841 579.081 381.841 578.421C381.821 568.761 381.801 559.111 381.781 549.451C381.881 548.401 381.981 547.361 382.091 546.311C381.251 542.461 377.031 543.071 374.921 540.871C363.411 528.931 351.371 517.431 344.851 501.631C343.861 499.241 343.981 497.361 345.701 495.761C350.731 491.101 356.311 487.171 362.831 484.951C367.181 483.471 370.821 484.171 372.911 489.201C375.011 494.251 378.801 498.791 379.971 503.981C381.951 512.691 386.451 518.281 394.121 522.791C398.421 525.321 400.641 525.001 403.971 522.261C407.281 519.551 409.221 515.471 413.121 513.431L413.161 513.401Z" fill="#D0CBB6"/>
<path d="M454.883 593.092C460.293 590.552 464.703 587.072 466.313 580.962C470.293 578.652 473.303 575.442 475.793 570.982C472.973 570.872 470.873 571.412 468.863 572.492C467.893 572.642 466.793 572.542 465.973 572.982C463.353 574.402 461.163 574.992 459.213 571.822C457.273 568.672 458.793 566.942 461.223 565.322C469.923 563.472 478.573 560.592 487.553 564.032C489.093 564.622 490.733 564.952 492.003 566.112C498.913 580.072 509.173 590.502 523.843 596.292C526.973 599.952 528.233 603.602 524.423 607.742C521.623 610.792 525.153 611.002 526.583 611.252C537.063 613.092 546.333 617.662 555.033 623.552C556.113 624.282 557.013 625.272 557.993 626.142C551.753 627.322 545.543 628.732 539.133 628.692C537.903 627.992 536.713 627.152 535.173 627.372C525.613 621.412 516.033 621.612 506.443 627.282C502.613 631.912 497.433 635.272 494.123 640.392C493.713 640.712 493.313 641.022 492.903 641.342C491.813 641.512 491.143 642.142 490.913 643.232L490.863 643.282C485.483 645.752 482.903 651.072 478.953 654.992C474.133 659.782 470.063 659.882 465.333 655.222C461.903 651.852 458.733 648.172 455.033 645.132C452.333 642.912 450.653 639.312 446.733 638.642C446.403 638.312 446.073 637.972 445.753 637.642C445.913 635.562 444.963 634.542 442.873 634.612L442.833 634.492C442.493 634.182 442.153 633.862 441.813 633.552C439.253 631.502 436.683 629.452 434.123 627.402C425.823 613.032 428.353 599.462 437.153 586.352C439.443 588.162 441.063 590.492 442.393 593.052C441.073 598.882 437.373 604.132 438.033 611.222C444.293 605.202 449.813 599.372 454.863 593.082L454.883 593.092Z" fill="#727272"/>
<path d="M565.313 598.053C565.873 598.143 566.433 598.243 567.003 598.333C567.513 599.173 568.523 600.033 568.473 600.843C568.033 608.053 571.533 614.343 573.033 621.093C573.663 623.933 575.113 626.583 576.183 629.323C576.713 607.263 577.793 585.513 579.503 563.793C580.583 585.683 579.453 607.543 578.653 629.503C582.413 624.803 584.633 619.513 586.663 614.123C589.463 606.703 591.323 599.003 593.153 591.303C593.403 591.293 593.653 591.253 593.893 591.183C594.563 597.483 592.383 603.423 591.883 609.823L603.603 592.583C604.023 592.873 604.443 593.163 604.863 593.453C597.733 605.743 590.423 617.933 582.023 629.453C579.053 633.763 575.543 633.753 573.003 629.423C565.073 619.543 559.173 608.463 553.793 597.053C560.363 603.943 564.063 612.743 569.603 620.403C567.783 612.943 565.463 605.713 565.333 598.063L565.313 598.053Z" fill="#CBCBCB"/>
<path d="M572.993 629.412C575.533 633.742 579.053 633.762 582.013 629.442C583.183 629.432 584.353 629.412 585.523 629.402C591.503 631.192 597.853 629.952 603.843 631.662C603.823 632.042 603.803 632.422 603.783 632.802C603.783 632.802 603.773 633.202 603.773 633.212C603.173 633.272 602.573 633.332 601.973 633.392C601.263 633.602 600.563 633.802 599.853 634.012C599.533 634.022 599.243 634.112 598.973 634.292C597.983 634.322 596.983 634.352 595.993 634.382C595.353 634.392 594.713 634.412 594.083 634.422C593.093 634.492 592.093 634.562 591.103 634.632C590.353 634.412 589.683 634.522 589.113 635.092C588.373 635.162 587.623 635.232 586.883 635.292C583.253 635.432 579.633 635.582 576.003 635.722C574.023 635.682 572.043 635.652 570.073 635.612C566.703 635.312 563.323 635.022 559.943 634.732C559.313 634.652 558.683 634.572 558.053 634.492C556.103 634.012 554.153 633.522 551.863 632.962C553.203 632.032 554.203 631.332 555.213 630.632C559.883 629.822 564.853 632.072 569.333 629.262C570.553 629.312 571.783 629.362 573.013 629.412H572.993Z" fill="#684949"/>
<path d="M447.02 640.453C446.93 639.853 446.84 639.243 446.75 638.643C450.66 639.313 452.35 642.913 455.04 645.133C458.74 648.173 461.91 651.843 465.34 655.223C470.08 659.883 474.15 659.783 478.96 654.993C482.91 651.063 485.49 645.753 490.87 643.283C491.34 646.533 488.48 648.043 486.81 649.693C483.03 653.443 480.21 658.113 474.92 660.603C472.31 661.833 470.88 661.993 468.86 660.583C460.67 654.863 453.84 647.653 447.01 640.453H447.02Z" fill="#6B6B6B"/>
<path d="M603.843 631.662C597.853 629.952 591.503 631.192 585.523 629.402C586.413 626.652 588.693 626.262 591.123 626.152C597.383 626.832 603.643 627.512 609.903 628.192C612.213 629.062 615.193 628.412 616.673 631.162C613.043 630.852 609.633 632.822 605.983 632.162C605.363 631.592 604.643 631.432 603.843 631.662Z" fill="#D0CBB6"/>
<path d="M490.934 643.232C491.164 642.142 491.824 641.522 492.924 641.342C492.884 642.622 492.244 643.282 490.934 643.232Z" fill="#6B6B6B"/>
<path d="M555.192 630.622C554.182 631.322 553.182 632.022 551.842 632.952C554.132 633.522 556.082 634.002 558.032 634.482C557.092 635.332 555.872 635.582 554.822 635.182C552.812 634.422 549.002 635.142 549.132 632.782C549.292 629.722 552.802 630.542 555.192 630.622Z" fill="#8D8D8D"/>
<path d="M559.922 634.732C563.302 635.022 566.672 635.322 570.052 635.612C566.572 636.512 563.082 637.542 559.922 634.732Z" fill="#8D8D8D"/>
<path d="M575.984 635.733C579.614 635.593 583.244 635.443 586.864 635.303C583.304 637.143 579.654 636.693 575.984 635.733Z" fill="#8D8D8D"/>
<path d="M589.094 635.093C589.654 634.523 590.334 634.413 591.084 634.633C590.664 635.823 590.144 636.623 589.094 635.093Z" fill="#8D8D8D"/>
<path d="M601.963 633.393C602.563 633.333 603.163 633.273 603.763 633.213C603.803 634.553 603.623 635.523 602.043 634.293C602.023 633.993 601.993 633.693 601.953 633.403L601.963 633.393Z" fill="#D0CBB6"/>
<path d="M603.841 631.662C604.651 631.432 605.361 631.592 605.981 632.162C605.441 633.022 604.731 633.312 603.781 632.812C603.801 632.422 603.821 632.042 603.841 631.662Z" fill="#8D8D8D"/>
<path d="M595.984 634.383C596.984 634.353 597.974 634.323 598.964 634.293C598.204 635.363 597.094 635.293 595.984 635.223C595.994 634.943 595.994 634.663 595.984 634.383Z" fill="#D0CBB6"/>
<path d="M601.964 633.393C602.004 633.693 602.034 633.993 602.054 634.283C601.314 634.193 600.584 634.103 599.844 634.013C600.554 633.803 601.254 633.593 601.964 633.393Z" fill="#8D8D8D"/>
<path d="M595.982 634.383C596.002 634.663 596.002 634.943 595.982 635.223C595.342 634.953 594.702 634.693 594.062 634.423C594.702 634.413 595.342 634.403 595.982 634.383Z" fill="#8D8D8D"/>
<path d="M413.162 513.402C409.262 515.452 407.312 519.522 404.012 522.232C400.672 524.972 398.462 525.292 394.162 522.762C386.492 518.252 381.992 512.662 380.012 503.952C378.832 498.762 375.042 494.222 372.952 489.172C370.862 484.152 367.222 483.442 362.872 484.922C356.352 487.152 350.762 491.072 345.742 495.732C344.022 497.322 343.902 499.202 344.892 501.602C351.412 517.402 363.452 528.902 374.962 540.842C377.082 543.042 381.292 542.432 382.132 546.282C380.972 547.012 380.572 548.212 380.202 549.422C377.782 553.642 376.292 558.262 375.192 562.932C371.112 580.212 366.422 597.322 361.482 614.372C358.152 614.412 354.902 614.202 351.662 613.152C340.662 609.582 329.652 606.002 318.542 602.782C308.292 599.812 298.852 595.062 289.422 590.242C283.282 587.112 277.712 582.942 271.232 580.432C271.272 576.602 270.362 572.712 271.892 568.972C276.332 565.282 278.512 559.922 281.812 555.382C286.412 549.062 290.642 542.462 295.902 536.632C298.672 533.562 299.992 529.842 301.052 525.952C306.102 507.322 310.082 488.402 315.952 469.982C318.392 462.322 321.372 454.912 327.302 449.142C327.792 449.122 328.442 449.302 328.752 449.052C335.062 444.082 340.752 438.012 349.632 437.722C350.172 437.702 350.672 436.952 351.212 436.572C354.832 434.012 358.452 431.462 362.072 428.912C366.332 434.462 371.332 439.322 376.732 443.712C380.522 446.792 382.962 451.512 388.022 453.022C388.502 455.642 390.602 456.452 393.212 458.022V439.942C395.722 439.922 398.232 439.912 400.732 439.892C401.782 440.372 402.792 441.122 403.882 441.272C415.462 442.882 419.842 451.292 421.802 461.172C423.222 468.352 422.472 475.722 419.252 482.572C414.272 483.172 412.162 486.422 413.382 492.632C414.452 498.082 414.602 503.492 414.062 508.962L414.162 508.892C413.312 510.302 412.912 511.822 413.072 513.472L413.182 513.402H413.162Z" fill="#9B9285"/>
<path d="M329.174 444.452C329.534 441.752 330.604 439.192 332.204 437.162C337.914 429.902 337.534 422.232 335.624 413.672C333.344 403.432 331.944 393.052 334.674 382.342C337.994 369.302 344.394 358.672 354.944 350.382C362.414 344.512 371.024 343.152 379.964 344.452C394.694 346.602 407.704 352.383 417.034 364.623C418.024 365.923 418.794 367.463 419.404 368.993C421.494 374.223 420.564 377.232 416.034 380.442C412.994 380.562 409.784 378.072 406.934 380.582C399.464 387.152 390.054 388.702 380.884 390.802C375.924 391.942 372.624 394.752 370.254 399.082C368.814 401.722 368.084 404.802 365.844 407.202C364.544 404.812 363.614 402.662 362.304 400.772C360.704 398.472 358.224 398.002 355.614 398.542C353.304 399.022 352.284 400.912 352.224 402.962C352.114 406.672 352.564 410.752 355.694 412.952C360.924 416.642 361.194 421.622 360.804 427.072C358.584 427.612 357.654 429.803 355.714 430.873C347.844 435.233 338.884 437.572 331.974 443.712C331.324 444.282 330.114 444.222 329.164 444.452H329.174Z" fill="#684949"/>
<path d="M360.813 427.063C361.203 421.613 360.933 416.633 355.703 412.943C352.573 410.743 352.123 406.663 352.233 402.953C352.293 400.903 353.313 399.013 355.623 398.533C358.233 397.993 360.723 398.463 362.313 400.763C363.623 402.653 364.563 404.803 365.853 407.193C368.093 404.783 368.813 401.703 370.263 399.073C372.633 394.743 375.933 391.933 380.893 390.793C390.053 388.693 399.473 387.133 406.943 380.573C409.793 378.063 413.003 380.553 416.043 380.433C415.353 391.753 414.653 403.073 413.963 414.383C412.883 414.753 413.003 415.583 413.173 416.433C413.763 419.493 413.083 422.193 410.893 424.463C407.953 422.373 405.123 424.193 402.363 424.893C400.933 425.253 398.513 425.703 398.743 427.623C399.043 430.073 401.563 429.253 403.243 429.393C404.883 429.523 406.543 429.393 408.203 429.373C406.403 433.363 406.393 438.633 400.723 439.883C398.203 439.903 395.703 439.913 393.193 439.933C391.473 439.223 389.523 438.283 389.133 441.203C388.603 445.113 388.363 449.073 388.003 453.013C382.943 451.503 380.493 446.783 376.713 443.703C371.323 439.323 366.313 434.453 362.063 428.913C361.643 428.303 361.233 427.683 360.813 427.063ZM389.193 405.343C392.667 407.829 395.25 407.393 396.943 404.033C394.263 402.793 391.933 403.643 389.193 405.343Z" fill="#D0CBB6"/>
<path d="M523.84 596.293C509.17 590.503 498.91 580.073 492 566.113C501.39 567.783 507.61 574.343 513.7 580.733C517.96 585.203 522.16 590.003 523.84 596.293Z" fill="#684949"/>
<path d="M360.813 427.062C361.233 427.683 361.643 428.302 362.063 428.912C358.443 431.462 354.823 434.012 351.203 436.572C350.663 436.952 350.163 437.712 349.623 437.722C340.753 438.012 335.063 444.082 328.743 449.052C328.423 449.302 327.783 449.122 327.293 449.142C327.773 447.512 327.903 445.752 329.173 444.442C330.123 444.212 331.343 444.282 331.983 443.702C338.893 437.552 347.853 435.222 355.723 430.862C357.663 429.792 358.593 427.592 360.813 427.062Z" fill="#6B6B6B"/>
<path d="M414.042 508.962C414.592 503.482 414.432 498.082 413.362 492.632C412.142 486.422 414.252 483.172 419.232 482.572C418.032 491.472 416.692 500.352 414.042 508.972V508.962Z" fill="#D0CBB6"/>
<path d="M408.214 429.371C406.564 429.391 404.894 429.521 403.254 429.391C401.574 429.261 399.054 430.071 398.754 427.621C398.524 425.711 400.944 425.251 402.374 424.891C405.134 424.191 407.964 422.381 410.904 424.461C410.594 426.421 409.474 427.931 408.214 429.371Z" fill="#8D8D8D"/>
<path d="M413.05 513.473C412.89 511.823 413.29 510.303 414.14 508.893C414.14 510.503 414.55 512.213 413.05 513.473Z" fill="#D0CBB6"/>
<path d="M271.221 580.441C277.691 582.951 283.271 587.121 289.411 590.251C298.841 595.061 308.271 599.811 318.531 602.791C329.641 606.011 340.641 609.591 351.651 613.161C354.891 614.211 358.141 614.431 361.471 614.381C360.611 618.681 359.521 622.971 361.011 627.361C359.191 628.471 357.151 628.221 355.181 628.221C329.271 628.241 303.361 628.251 277.451 628.201C275.321 628.201 273.181 627.721 271.051 627.461C271.111 611.791 271.171 596.121 271.231 580.451L271.221 580.441Z" fill="#858585"/>
<path d="M445.771 637.643C444.311 637.103 443.281 636.173 442.891 634.613C444.991 634.543 445.941 635.563 445.771 637.643Z" fill="#6B6B6B"/>
<path d="M388.012 453.012C388.372 449.072 388.612 445.122 389.142 441.202C389.542 438.282 391.492 439.222 393.202 439.932C393.202 445.702 393.202 451.472 393.202 458.002C390.592 456.442 388.492 455.632 388.012 453.002V453.012Z" fill="#CBCBCB"/>
<path d="M389.191 405.342C391.931 403.652 394.261 402.802 396.941 404.032C395.241 407.385 392.658 407.822 389.191 405.342Z" fill="#8D8D8D"/>
<rect width="246" height="399" rx="15" transform="matrix(-1 0 0 1 246 111)" fill="#D9D9D9"/>
<path d="M168.659 509.916C167.889 484.866 170.359 460.226 176.739 435.896C181.079 419.366 184.289 402.536 187.649 385.766C191.239 367.876 187.769 351.536 176.109 337.106C171.619 331.546 167.599 325.696 161.579 321.496C157.589 318.716 159.779 314.116 159.329 310.316C159.079 308.166 160.149 305.296 156.349 305.246C154.039 309.106 149.489 308.656 146.159 310.556C136.649 314.206 129.069 321.356 119.769 325.276C115.089 327.256 111.469 331.046 106.509 332.376C105.449 335.196 107.949 338.316 105.939 340.966C102.379 345.676 98.9688 350.556 93.8288 353.796C92.6188 354.556 91.7488 354.926 91.4288 353.076L91.1289 351.826C84.5989 352.326 78.0989 350.796 71.5189 351.756C68.4889 352.196 65.4489 353.526 62.2589 352.686C59.7589 357.346 58.5589 362.476 58.6189 367.586C58.8189 384.556 56.5089 401.496 58.2389 418.476C59.2089 427.936 61.3789 437.156 63.2989 446.426C64.2289 450.896 67.4889 453.156 71.7989 453.716C74.9389 454.126 75.9588 455.966 75.1888 458.556C72.7888 466.566 73.7489 474.746 73.6189 482.856C73.4789 491.846 73.5788 500.846 73.5688 509.846C105.269 509.866 136.959 509.886 168.659 509.906V509.916Z" fill="#9B9285"/>
<path d="M106.509 332.377C111.469 331.047 115.079 327.257 119.769 325.277C129.069 321.347 136.649 314.207 146.159 310.557C146.229 308.407 146.289 306.247 146.359 304.087C146.309 303.717 146.249 303.337 146.199 302.967C144.449 302.667 142.699 302.097 140.959 302.137C137.949 302.207 136.959 300.667 136.929 298.007C127.189 302.647 118.219 308.837 107.109 312.877C108.619 309.357 109.969 306.707 110.909 303.927C113.289 296.837 116.009 289.557 114.329 282.097C113.519 278.487 113.929 276.367 116.399 274.167C113.819 270.547 111.319 266.897 108.549 263.397C103.619 257.177 104.189 246.897 109.489 242.777C104.179 241.377 99.7994 238.067 94.3394 237.777C91.7294 240.807 89.4593 244.077 87.6993 247.667C86.7593 249.587 85.1094 251.887 85.4994 253.627C87.4294 262.257 80.8994 266.027 76.2394 270.867C72.1094 275.157 72.1194 276.477 77.0194 279.537C78.3694 280.377 79.8293 281.027 79.0793 282.867C78.0293 285.437 78.0993 287.517 80.3093 289.587C81.6493 290.837 79.1594 291.407 79.1494 292.207C79.0594 298.577 73.4894 302.407 71.9994 308.187C70.4294 314.277 68.3494 320.247 67.4694 326.487C67.0794 329.247 66.5694 332.077 67.3794 334.887C75.5494 333.207 83.6394 332.577 91.2994 336.937C92.5994 335.847 93.8993 334.747 95.1993 333.657C96.5393 332.437 97.7894 331.107 99.2294 330.027C104.339 326.177 104.369 326.207 106.519 332.407L106.509 332.377ZM101.109 302.097C99.6394 297.467 101.999 293.557 101.069 290.177C99.1593 283.167 104.009 282.297 108.639 280.117C107.779 288.027 106.079 295.097 101.099 302.097H101.109ZM90.0693 293.687C89.4593 291.707 89.7293 290.347 91.6993 290.127C93.3793 289.937 93.5594 291.337 93.3494 292.447C92.9194 294.727 94.5594 298.667 92.0894 298.947C89.1594 299.287 91.1793 295.167 90.0693 293.687Z" fill="#D0CBB6"/>
<path d="M136.939 298.017C136.959 300.677 137.949 302.217 140.969 302.147C142.709 302.107 144.459 302.677 146.209 302.977C149.279 294.117 156.629 288.097 161.259 280.237C170.919 263.827 166.799 241.537 151.689 229.927C147.179 226.457 141.799 226.417 136.709 225.097C128.689 223.007 120.749 220.617 112.509 219.447C109.359 218.997 106.199 218.797 103.079 219.277C94.6589 220.587 90.7689 227.387 93.7089 235.397C93.9889 236.167 94.1389 236.987 94.3489 237.787C99.7989 238.077 104.179 241.387 109.499 242.787C104.199 246.907 103.639 257.187 108.559 263.407C111.329 266.907 113.829 270.557 116.409 274.177C118.389 274.117 120.099 273.517 121.809 272.377C124.499 270.577 127.489 270.167 130.429 272.107C133.589 271.777 136.789 271.537 138.339 275.167C139.649 278.237 140.459 281.377 137.419 284.057C140.549 288.827 142.689 293.557 136.949 298.027L136.939 298.017Z" fill="#684949"/>
<path d="M91.2891 336.918C83.6291 332.558 75.549 333.188 67.369 334.868C65.939 335.718 64.699 336.548 64.389 338.508C63.659 343.238 62.289 347.858 62.249 352.688C65.439 353.528 68.479 352.198 71.509 351.758C78.099 350.798 84.589 352.328 91.129 351.828C91.179 346.858 91.2391 341.878 91.2891 336.908V336.918Z" fill="#CBCBCB"/>
<path d="M146.362 304.097C146.292 306.257 146.232 308.407 146.162 310.567C149.492 308.667 154.042 309.117 156.352 305.257C153.032 304.747 149.772 303.827 146.362 304.097Z" fill="#CBCBCB"/>
<path d="M106.508 332.377C104.348 326.177 104.328 326.147 99.2183 329.997C97.7783 331.077 96.5283 332.407 95.1883 333.627C95.7383 333.967 96.6883 334.227 96.7683 334.657C98.0783 341.667 97.1483 348.077 91.4383 353.077C91.7583 354.927 92.6383 354.557 93.8383 353.797C98.9783 350.557 102.388 345.677 105.948 340.967C107.958 338.307 105.458 335.187 106.518 332.377H106.508Z" fill="#CBCBCB"/>
<path d="M90.0676 293.687C91.1676 295.177 89.1576 299.287 92.0876 298.947C94.5576 298.667 92.9277 294.727 93.3477 292.447C93.5577 291.337 93.3776 289.937 91.6976 290.127C89.7276 290.347 89.4576 291.707 90.0676 293.687Z" fill="#6B6B6B"/>
<path d="M130.419 272.097C132.209 276.397 134.869 280.187 137.409 284.047C140.449 281.367 139.638 278.227 138.328 275.157C136.778 271.527 133.579 271.767 130.419 272.097Z" fill="#8D8D8D"/>
<rect x="273" width="433" height="303" rx="10" fill="#D9D9D9"/>
<path d="M383.16 278.179C385.08 268.649 386.04 258.909 389.44 249.709C392.39 250.689 395.28 252.119 398.31 252.569C418.35 255.579 438.48 256.619 458.73 254.849C462.56 254.519 466.13 254.459 467.17 249.799C472.5 247.019 477.9 244.649 484.11 246.799C484.15 249.659 484.62 252.209 488.23 252.489C491.22 252.769 493.6 254.179 495.35 256.559C498.85 261.299 500.94 266.639 502.12 272.389C503.97 281.419 502.67 290.569 503.18 299.639C503.24 300.319 503.29 300.999 503.35 301.689C503.29 301.929 503.23 302.169 503.19 302.419C464.42 302.459 425.65 302.489 386.87 302.509C386.04 302.509 385.22 302.349 384.39 302.259C383.97 300.379 384.88 298.229 383.29 296.569C382.86 290.439 382.65 284.309 383.15 278.169L383.16 278.179Z" fill="#858585"/>
<path d="M612.007 206.209C612.307 199.199 613.487 198.539 620.757 199.889C631.097 201.809 641.547 203.059 652.057 203.619C652.077 205.659 652.097 207.709 652.117 209.749C650.797 211.099 651.237 212.819 651.217 214.409C651.157 220.139 651.157 225.859 651.137 231.589C640.847 233.159 630.517 234.359 620.307 236.489C614.017 237.809 607.547 239.489 601.247 239.189C592.897 238.789 584.627 236.709 576.347 235.169C559.447 232.019 542.547 228.909 525.717 225.429C521.487 224.559 516.747 224.989 513.137 221.809C522.727 218.109 533.007 216.629 542.477 212.549C550.457 214.279 558.527 215.319 566.657 214.249C572.077 213.529 577.477 212.689 582.947 212.499C582.967 216.319 582.947 220.139 583.007 223.949C583.087 229.009 585.067 231.369 589.927 230.529C596.287 229.429 603.187 230.869 608.737 225.229C611.747 222.179 613.907 219.549 614.247 215.309C614.517 211.969 612.717 209.249 612.007 206.219V206.209Z" fill="#727272"/>
<path d="M538.707 242.72C544.527 248.95 545.827 256.72 546.377 264.8C547.217 277.36 549.057 289.88 547.927 302.52C538.007 302.42 528.097 302.31 518.177 302.21C518.757 295.28 519.337 288.35 519.917 281.43C519.547 281.27 519.177 281.12 518.807 280.96C513.597 287.19 508.387 293.42 503.177 299.65C502.657 290.57 503.957 281.43 502.117 272.4C500.937 266.64 498.847 261.3 495.347 256.57C493.597 254.2 491.207 252.79 488.227 252.51C488.767 251.4 489.717 250.74 490.827 250.34C502.947 246 515.217 242.34 528.177 241.59C528.837 241.68 529.507 241.78 530.167 241.87C530.487 241.88 530.797 241.89 531.117 241.9C532.107 241.92 533.107 241.93 534.097 241.95C534.977 244.06 536.397 243.93 538.027 242.9C538.267 242.9 538.497 242.84 538.707 242.73V242.72Z" fill="#D0CBB6"/>
<path d="M346.787 280.76C346.667 279.28 346.547 277.8 346.427 276.33C347.367 274.72 347.497 273.18 346.057 271.76C346.027 271.41 346.007 271.06 345.977 270.7C345.927 268.68 346.877 266.52 345.097 264.76C344.177 263.78 344.267 262.57 344.327 261.37C346.137 256.05 342.857 252.48 339.997 248.77V248.73C339.797 248.43 339.597 248.13 339.397 247.83C339.207 247.57 339.097 247.28 339.047 246.97C337.907 239.11 334.517 231.83 333.017 224.02C332.577 221.72 333.287 218.58 330.737 216.78C330.597 215.66 330.447 214.54 330.307 213.42C331.377 209.02 330.577 204.85 328.688 200.83C328.608 199.97 328.517 199.1 328.438 198.24C329.747 193.84 328.877 189.36 328.917 184.91C330.957 181.36 334.108 180.33 337.818 181.51C342.628 183.03 347.897 183.1 352.287 185.99C346.617 190.67 347.797 197.14 348.227 203.13C349.577 221.86 354.167 239.94 361.137 257.29C366.967 271.81 368.487 287.01 370.107 302.27C363.097 302.75 356.078 302.67 349.068 302.28C348.448 295.76 347.807 289.24 348.017 282.68C348.047 281.79 347.607 281.12 346.767 280.75L346.787 280.76Z" fill="#684949"/>
<path d="M370.129 302.28C368.499 287.02 366.989 271.82 361.159 257.3C354.189 239.94 349.599 221.87 348.249 203.14C347.819 197.15 346.639 190.68 352.309 186C358.409 187.03 359.079 188.06 360.129 195.47C362.329 210.98 364.969 226.5 370.819 241.07C374.729 250.81 379.369 260.2 380.949 270.71C381.339 273.29 381.009 276.12 383.159 278.19C382.659 284.32 382.869 290.45 383.299 296.58C382.929 298.52 382.569 300.46 382.199 302.41C378.179 302.37 374.149 302.33 370.129 302.29V302.28Z" fill="#727272"/>
<path d="M530.17 241.859C529.51 241.769 528.84 241.669 528.18 241.579C527.05 239.549 524.99 238.669 523.12 237.569C523.53 230.529 523.54 230.459 516.8 229.149C508.28 227.489 499.69 226.119 491.2 224.309C485.97 223.189 480.3 223.479 475.68 220.079C476.11 218.949 476.53 217.819 476.96 216.689C485.46 217.589 493.69 220.259 502.28 220.549C505.69 222.799 509.44 222.129 513.15 221.799C516.76 224.979 521.5 224.549 525.73 225.419C542.56 228.899 559.47 232.009 576.36 235.159C584.63 236.699 592.91 238.779 601.26 239.179C607.56 239.479 614.03 237.799 620.32 236.479C630.53 234.339 640.86 233.149 651.15 231.579C651.39 234.279 649.82 235.069 647.5 235.949C645.13 236.849 642.03 235.349 640.32 238.149C639.49 238.249 638.67 238.359 637.85 238.459C629.34 237.979 621.21 240.499 612.9 241.599C611.25 241.819 610.39 243.019 610.04 244.599C609.21 244.599 608.38 244.579 607.54 244.579C602.606 244.599 600.14 247.006 600.14 251.799C600.14 268.619 600.14 285.429 600.13 302.249C597.45 302.269 594.77 302.289 592.09 302.309C592.13 301.089 592.08 299.929 590.51 299.669C590.46 298.569 590.4 297.469 590.35 296.369C590.57 295.929 590.98 295.489 590.98 295.049C591.09 278.769 591.16 262.489 591.2 246.209C591.2 246.079 590.66 245.939 590.37 245.809C590.13 244.559 590.03 243.259 588.9 242.399C586.01 238.639 582.26 239.389 578.46 240.399C577.63 240.239 576.79 240.079 575.96 239.919C575.38 238.329 574.48 238.389 573.4 239.449C572.21 239.219 571.03 238.999 569.85 238.769C563.41 236.359 556.94 234.039 549.87 234.799C549.54 234.799 549.22 234.779 548.89 234.819C545.83 235.189 542.47 232.249 539.98 234.309C537.74 236.169 539.97 239.959 538.73 242.699C538.51 242.799 538.29 242.859 538.05 242.869C537.05 241.239 535.57 241.629 534.12 241.919C533.13 241.899 532.13 241.889 531.14 241.869C530.83 241.749 530.51 241.739 530.19 241.839L530.17 241.859Z" fill="#684949"/>
<path d="M600.119 302.248C600.119 285.428 600.119 268.618 600.129 251.798C600.129 247.011 602.596 244.605 607.529 244.578C608.359 244.578 609.189 244.588 610.029 244.598C609.529 246.988 609.279 249.338 610.879 251.468C610.879 265.898 610.879 280.338 610.879 294.768C609.919 297.298 608.229 299.568 608.159 302.408C605.479 302.358 602.789 302.298 600.109 302.248H600.119Z" fill="#727272"/>
<path d="M640.309 238.148C642.019 235.348 645.119 236.838 647.489 235.948C649.809 235.068 651.379 234.278 651.129 231.578C651.149 225.848 651.149 220.128 651.209 214.398C651.229 212.808 650.789 211.088 652.109 209.738C653.009 218.648 653.249 227.558 652.059 236.458C648.149 237.058 644.329 238.298 640.309 238.148Z" fill="#6B6B6B"/>
<path d="M346.789 280.76C347.629 281.13 348.069 281.8 348.039 282.69C347.829 289.26 348.459 295.78 349.089 302.29C348.579 302.36 348.069 302.42 347.569 302.49C347.309 295.24 347.059 288 346.799 280.76H346.789Z" fill="#6B6B6B"/>
<path d="M608.168 302.41C608.238 299.57 609.928 297.3 610.888 294.77C610.968 297.38 611.048 299.98 611.128 302.59C610.138 302.53 609.158 302.47 608.168 302.41Z" fill="#6B6B6B"/>
<path d="M382.199 302.398C382.569 300.458 382.929 298.518 383.299 296.568C384.889 298.228 383.979 300.368 384.399 302.258C383.669 302.308 382.939 302.348 382.199 302.398Z" fill="#6B6B6B"/>
<path d="M590.5 299.68C592.07 299.94 592.12 301.1 592.08 302.32C591.47 302.4 590.86 302.48 590.25 302.56C590.33 301.6 590.41 300.64 590.49 299.68H590.5Z" fill="#6B6B6B"/>
<path d="M503.347 301.689C503.597 301.929 503.847 302.169 504.097 302.409L503.647 302.519L503.188 302.419C503.227 302.169 503.277 301.929 503.347 301.689Z" fill="#D0CBB6"/>
<path d="M476.949 216.688C476.519 217.818 476.099 218.948 475.679 220.078C471.499 229.598 469.459 239.738 467.169 249.798C466.129 254.458 462.559 254.518 458.729 254.848C438.479 256.618 418.359 255.578 398.309 252.568C395.279 252.108 392.389 250.688 389.439 249.708C386.379 243.508 388.669 237.038 389.809 231.208C395.149 203.798 402.289 176.768 407.329 149.288C410.629 151.108 413.839 152.958 417.409 154.408C429.649 159.378 441.219 159.138 451.599 150.678C456.999 146.278 462.199 141.328 464.999 134.578C465.129 134.288 465.199 133.988 465.219 133.678C466.939 133.328 467.129 132.048 467.069 130.628C467.449 129.628 467.829 128.638 468.209 127.648C470.979 125.268 474.449 123.788 476.819 120.898C488.529 131.228 490.879 145.638 493.749 159.808C486.559 161.618 479.349 163.358 472.179 165.268C469.169 166.068 468.129 168.028 469.799 170.898C474.099 178.288 478.169 185.818 483.179 192.778L483.959 193.648L484.129 193.828C484.389 194.198 484.649 194.578 484.909 194.948C484.899 195.708 484.889 196.458 484.879 197.218C479.039 199.788 478.499 205.358 477.319 210.568C476.799 212.588 475.009 214.528 476.939 216.708L476.949 216.688Z" fill="#9B9285"/>
<path d="M468.206 127.619C467.826 128.609 467.446 129.609 467.066 130.599C465.796 131.219 465.206 132.249 465.216 133.649C465.206 133.959 465.126 134.269 464.996 134.549C458.956 137.169 456.116 143.069 451.816 147.469C445.256 154.189 432.436 156.509 423.476 153.689C417.906 151.929 413.176 148.949 408.136 146.359C407.926 144.389 407.716 142.409 407.516 140.439C408.146 138.559 408.106 136.669 407.566 134.769C407.676 133.699 407.776 132.629 407.886 131.559C408.066 131.289 408.096 130.999 407.996 130.689C408.116 125.609 410.906 121.589 413.516 117.619C415.896 113.999 417.136 110.199 417.166 105.929C417.206 99.4889 418.956 93.5589 421.826 87.7689C426.346 78.6489 428.366 68.6089 431.796 59.0689C440.576 34.6689 468.476 32.7389 484.676 46.7289C492.396 53.3989 497.376 61.4789 497.396 72.1489C497.396 79.1389 493.366 84.2489 490.056 89.7489C486.146 92.3289 483.846 95.8989 483.126 100.579C482.606 103.989 481.816 107.359 481.146 110.749C481.046 110.819 480.846 110.889 480.846 110.949C480.876 111.159 480.966 111.369 481.026 111.569C480.916 112.249 480.806 112.939 480.696 113.619C479.276 114.059 479.166 115.209 479.186 116.419L478.936 116.689C476.426 117.709 474.096 119.359 472.106 120.919C470.346 122.299 466.656 123.809 468.196 127.619H468.206Z" fill="#684949"/>
<path d="M615.469 149.039C616.999 149.719 617.019 150.909 616.759 152.349C613.819 168.989 610.929 185.639 607.979 202.269C607.849 202.999 607.199 203.649 606.789 204.329C601.649 199.089 595.109 200.699 588.909 200.639C587.429 200.629 586.379 201.189 586.049 202.739C585.199 202.749 584.339 202.769 583.489 202.779C579.039 200.079 573.849 202.609 569.279 200.769C569.499 196.329 567.239 194.189 562.969 193.549C560.399 193.169 557.909 192.279 555.379 191.619C555.939 189.889 556.659 188.199 557.039 186.429C559.169 176.359 561.539 166.319 563.159 156.159C563.999 150.939 566.149 149.189 571.269 149.669C575.549 150.069 579.899 149.639 584.229 149.579C589.209 149.579 594.189 149.579 599.169 149.579C604.609 149.579 610.079 150.099 615.479 149.029L615.469 149.039Z" fill="#B7B7B7"/>
<path d="M555.367 191.629C557.897 192.289 560.387 193.179 562.957 193.569C567.237 194.209 569.497 196.349 569.267 200.789C568.867 201.729 568.467 202.669 568.067 203.609C561.497 205.839 555.237 209.089 548.167 209.679C545.847 209.799 544.077 210.999 542.467 212.529C532.997 216.609 522.717 218.099 513.127 221.789C509.417 222.119 505.667 222.779 502.257 220.539C500.307 216.349 496.867 213.259 494.127 209.659C491.897 204.869 487.407 201.749 484.867 197.189C484.877 196.429 484.887 195.679 484.907 194.919C484.647 194.539 484.387 194.169 484.127 193.799L483.957 193.619C483.697 193.329 483.437 193.039 483.177 192.749C478.167 185.789 474.087 178.259 469.797 170.869C468.127 167.999 469.177 166.039 472.177 165.239C479.347 163.339 486.557 161.589 493.747 159.779C498.197 169.739 503.437 179.279 509.177 188.549C510.437 190.589 511.287 193.109 514.087 193.729C514.407 195.069 515.407 195.309 516.617 195.659C525.867 198.389 535.187 197.859 544.557 196.619C547.547 196.229 549.337 194.649 550.147 191.819C550.507 191.689 550.857 191.559 551.217 191.429C552.557 192.339 553.887 193.569 555.367 191.629Z" fill="#D0CBB6"/>
<path d="M586.04 202.749C586.37 201.199 587.43 200.639 588.9 200.649C595.1 200.709 601.65 199.099 606.78 204.339C608.69 204.479 609.88 206.649 612 206.209C612.7 209.249 614.5 211.959 614.23 215.299C613.89 219.539 611.73 222.169 608.72 225.219C603.17 230.859 596.27 229.419 589.91 230.519C585.05 231.359 583.06 228.999 582.99 223.939C582.93 220.119 582.95 216.309 582.93 212.489C582.93 211.549 582.93 210.619 582.93 209.679C582.98 207.989 583.02 206.299 583.07 204.609L583.32 204.539C589.46 204.429 595.7 207.169 602.73 203.929C596.59 201.999 591.28 202.789 586.03 202.759L586.04 202.749ZM605.26 214.809H605.28C605.28 216.299 605.24 217.789 605.29 219.279C605.33 220.389 605.02 221.819 606.5 222.189C607.79 222.509 608.66 221.469 609.33 220.529C611.55 217.419 611.55 214.039 610.28 210.599C609.61 208.789 608.33 207.069 606.33 207.479C604.38 207.879 605.46 209.989 605.29 211.339C605.14 212.479 605.26 213.659 605.26 214.819V214.809Z" fill="#D0CBB6"/>
<path d="M408.147 146.369C413.187 148.959 417.917 151.939 423.487 153.699C432.447 156.519 445.267 154.189 451.827 147.479C456.127 143.079 458.967 137.189 465.007 134.559C462.207 141.309 457.007 146.269 451.607 150.659C441.227 159.119 429.647 159.369 417.417 154.389C413.847 152.939 410.637 151.089 407.337 149.269C407.257 148.199 407.387 147.189 408.147 146.359V146.369Z" fill="#6B6B6B"/>
<path d="M481.159 110.76C481.829 107.37 482.619 104 483.139 100.59C483.849 95.9098 486.159 92.3498 490.069 89.7598C492.509 95.7998 489.079 100.84 486.949 105.92C485.809 108.65 482.749 110.51 482.389 113.85C481.829 113.77 481.279 113.69 480.719 113.62C480.829 112.94 480.939 112.25 481.049 111.57C481.149 111.31 481.189 111.03 481.159 110.75V110.76Z" fill="#D0CBB6"/>
<path d="M538.067 190.868C531.687 193.718 525.077 194.228 518.277 192.848C521.867 190.448 526.277 190.858 530.147 189.398C532.057 190.198 533.967 191.008 536.117 190.438C536.767 190.578 537.417 190.728 538.077 190.868H538.067Z" fill="#7E4A4A"/>
<path d="M330.75 216.779C333.3 218.579 332.59 221.719 333.03 224.019C334.53 231.829 337.92 239.109 339.06 246.969C334.43 237.409 331.96 227.269 330.75 216.779Z" fill="#6B6B6B"/>
<path d="M468.208 127.619C466.678 123.819 470.358 122.299 472.118 120.919C474.108 119.359 476.438 117.709 478.948 116.689C478.238 118.079 477.528 119.469 476.818 120.859C474.448 123.749 470.968 125.229 468.208 127.609V127.619Z" fill="#6B6B6B"/>
<path d="M340.008 248.77C342.868 252.48 346.148 256.05 344.338 261.37C342.898 257.17 341.458 252.97 340.008 248.77Z" fill="#6B6B6B"/>
<path d="M328.708 200.818C330.598 204.838 331.398 209.008 330.328 213.408C328.978 209.318 328.588 205.098 328.708 200.818Z" fill="#6B6B6B"/>
<path d="M328.928 184.908C328.888 189.358 329.768 193.838 328.448 198.238C328.368 193.788 327.228 189.298 328.928 184.908Z" fill="#6B6B6B"/>
<path d="M480.716 113.629C481.276 113.709 481.826 113.789 482.386 113.859C481.806 115.319 480.366 115.699 479.196 116.429C479.186 115.209 479.286 114.059 480.716 113.629Z" fill="#6B6B6B"/>
<path d="M345.109 264.76C346.889 266.52 345.939 268.68 345.989 270.7C344.939 268.83 345.239 266.76 345.109 264.76Z" fill="#6B6B6B"/>
<path d="M346.07 271.76C347.51 273.18 347.38 274.72 346.44 276.33C346.32 274.81 346.19 273.28 346.07 271.76Z" fill="#6B6B6B"/>
<path d="M590.348 245.819C590.638 245.949 591.178 246.089 591.178 246.219C591.138 262.499 591.068 278.779 590.958 295.059C590.958 295.499 590.548 295.939 590.328 296.379C590.328 279.519 590.338 262.669 590.348 245.809V245.819Z" fill="#6B6B6B"/>
<path d="M549.836 234.809C556.916 234.049 563.376 236.369 569.816 238.779C563.036 238.029 556.296 237.109 549.836 234.809Z" fill="#6B6B6B"/>
<path d="M578.438 240.399C582.237 239.389 585.998 238.639 588.878 242.399C585.348 241.959 581.787 241.719 578.438 240.399Z" fill="#6B6B6B"/>
<path d="M573.379 239.448C574.459 238.388 575.359 238.328 575.939 239.918C574.989 240.278 574.169 239.918 573.379 239.448Z" fill="#6B6B6B"/>
<path d="M610.878 251.478C609.278 249.348 609.528 246.998 610.028 244.608C610.378 243.028 611.238 241.828 612.888 241.608C621.198 240.508 629.328 237.988 637.838 238.468C631.828 239.578 625.818 240.688 619.808 241.778C614.328 242.772 611.351 246.002 610.878 251.468V251.478Z" fill="#6B6B6B"/>
<path d="M582.939 209.68C582.939 210.62 582.939 211.55 582.939 212.49C577.459 212.68 572.069 213.52 566.649 214.24C558.519 215.31 550.449 214.27 542.469 212.54C544.079 211 545.859 209.81 548.169 209.69C553.929 211.1 559.689 212.1 565.699 211.31C571.419 210.56 577.189 210.21 582.929 209.68H582.939Z" fill="#CBCBCB"/>
<path d="M494.139 209.669C496.879 213.269 500.319 216.359 502.269 220.549C493.679 220.259 485.449 217.579 476.949 216.689C475.019 214.519 476.809 212.579 477.329 210.559C482.869 209.049 488.519 209.719 494.139 209.679V209.669Z" fill="#727272"/>
<path d="M465.219 133.659C465.199 132.259 465.789 131.229 467.069 130.609C467.129 132.039 466.939 133.309 465.219 133.659Z" fill="#6B6B6B"/>
<path d="M481.159 110.76C481.189 111.04 481.159 111.31 481.049 111.58C480.979 111.37 480.889 111.17 480.859 110.96C480.859 110.91 481.049 110.83 481.159 110.76Z" fill="#6B6B6B"/>
<path d="M568.327 145.488C572.287 145.528 576.247 145.688 580.207 145.548C583.207 145.438 584.527 146.608 584.217 149.588C579.897 149.648 575.537 150.078 571.267 149.678C566.137 149.198 563.987 150.948 563.157 156.168C561.527 166.328 559.167 176.368 557.037 186.438C556.667 188.208 555.937 189.898 555.377 191.628C553.897 193.568 552.577 192.338 551.227 191.428C554.067 180.208 556.157 168.838 558.207 157.458C558.787 154.228 559.497 150.938 560.787 147.938C562.197 144.648 565.677 145.918 568.347 145.488H568.327Z" fill="#869598"/>
<path d="M586.038 202.748C591.288 202.778 596.598 201.988 602.738 203.918C595.708 207.158 589.468 204.408 583.328 204.528C583.378 203.948 583.428 203.368 583.478 202.788C584.328 202.778 585.188 202.758 586.038 202.748Z" fill="#8D8D8D"/>
<path d="M605.266 214.819C605.266 213.659 605.146 212.489 605.296 211.339C605.466 209.989 604.386 207.869 606.336 207.479C608.336 207.079 609.616 208.789 610.286 210.599C611.556 214.039 611.556 217.419 609.336 220.529C608.666 221.469 607.796 222.509 606.506 222.189C605.026 221.829 605.326 220.389 605.296 219.279C605.246 217.789 605.286 216.299 605.286 214.809H605.266V214.819Z" fill="#727272"/>
</svg>
