<svg width="241" height="76" viewBox="0 0 241 76" preserveAspectRatio="xMinYMid meet" fill="none" xmlns="http://www.w3.org/2000/svg">
<path d="M56.039 29.4448C57.8422 29.4448 59.3038 27.9833 59.3038 26.1801C59.3038 24.3768 57.8422 22.9153 56.039 22.9153H37.4141L58.2842 22.3303C59.976 22.3303 61.3485 20.9579 61.3485 19.266C61.3485 17.5742 59.976 16.2018 58.2842 16.2018H37.4141L56.3361 15.6094C57.9759 15.6094 59.3056 14.2797 59.3056 12.6399C59.3056 11.0001 57.9759 9.67038 56.3361 9.67038H37.4141L51.9608 9.26367" stroke="black" stroke-width="2.22853" stroke-miterlimit="10"/>
<path d="M5.1875 21.8204C7.52931 17.9781 8.94443 15.6567 12.8425 9.26455C16.7406 2.87239 19.7676 3.32738 24.0446 3.32738H51.9587C53.5986 3.32738 54.9282 4.65707 54.9282 6.29689" stroke="black" stroke-width="2.22853" stroke-miterlimit="10"/>
<path d="M51.9609 9.26443C53.6008 9.26443 54.9305 7.93475 54.9305 6.29492" stroke="black" stroke-width="2.22853" stroke-miterlimit="10"/>
<path d="M42.3203 29.4434L51.1991 38.6732" stroke="black" stroke-width="2.22853" stroke-miterlimit="10"/>
<path d="M56.0362 29.4448H26.1238C28.2484 32.86 29.9625 36.5798 29.3403 40.0916C28.9578 42.2477 27.4034 43.8281 25.6001 43.8281C23.041 38.2976 21.0261 35.2278 17.6053 31.5823C14.1845 27.9368 10.3329 25.5579 7.4562 25.7844C4.87111 25.9887 2.83015 28.3398 4.49226 30.6352" stroke="black" stroke-width="2.22853" stroke-miterlimit="10"/>
<path d="M11.3809 11.6621L4.21244 23.4176C2.66732 25.9507 3.02575 29.2081 5.08528 31.3456L12.146 38.6737" stroke="black" stroke-width="2.22853" stroke-miterlimit="10"/>
<path d="M7.30947 47.9023C5.50622 47.9023 4.04467 49.3639 4.04467 51.1671C4.04467 52.9704 5.50622 54.4319 7.30947 54.4319H25.9344L5.06423 55.0169C3.3724 55.0169 2 56.3893 2 58.0811C2 59.773 3.3724 61.1454 5.06423 61.1454H25.9344L7.01233 61.7378C5.37251 61.7378 4.04282 63.0675 4.04282 64.7073C4.04282 66.3471 5.37251 67.6768 7.01233 67.6768H25.9344L11.3877 68.0835" stroke="black" stroke-width="2.22853" stroke-miterlimit="10"/>
<path d="M58.1587 55.5273C55.8169 59.3697 54.4018 61.6911 50.5037 68.0832C46.6056 74.4754 43.5767 74.0204 39.3017 74.0204H11.3875C9.74766 74.0204 8.41797 72.6907 8.41797 71.0509" stroke="black" stroke-width="2.22853" stroke-miterlimit="10"/>
<path d="M11.3875 68.082C9.74766 68.082 8.41797 69.4117 8.41797 71.0515" stroke="black" stroke-width="2.22853" stroke-miterlimit="10"/>
<path d="M21.0273 47.9036L12.1484 38.6738" stroke="black" stroke-width="2.22853" stroke-miterlimit="10"/>
<path d="M7.30859 47.9028H37.221C35.0965 44.4876 33.3824 40.7678 34.0045 37.256C34.3871 35.0999 35.9415 33.5195 37.7447 33.5195C40.3038 39.05 42.3188 42.1198 45.7396 45.7653C49.1603 49.4108 53.012 51.7897 55.8886 51.5632C58.4737 51.3589 60.5147 49.0078 58.8526 46.7124" stroke="black" stroke-width="2.22853" stroke-miterlimit="10"/>
<path d="M51.9643 65.6854L59.1328 53.93C60.6779 51.3969 60.3195 48.1395 58.2599 46.002L51.1992 38.6738" stroke="black" stroke-width="2.22853" stroke-miterlimit="10"/>
<path d="M87.2517 36.7371C84.4017 36.7371 81.9448 36.2457 79.881 35.2629C77.8172 34.2474 76.2284 32.8879 75.1146 31.1845C74.0008 29.4483 73.3784 27.5319 73.2474 25.4353H78.0138C78.1448 26.6474 78.5379 27.7939 79.1931 28.875C79.8483 29.956 80.8474 30.8569 82.1905 31.5776C83.5336 32.2655 85.2207 32.6095 87.2517 32.6095C89.1845 32.6095 90.7897 32.331 92.0673 31.7741C93.3449 31.2172 94.2785 30.4965 94.8681 29.6121C95.4906 28.7276 95.8018 27.7939 95.8018 26.8112C95.8018 25.2388 95.294 23.9939 94.2785 23.0767C93.263 22.1267 91.3957 21.406 88.6767 20.9146L85.1388 20.2758C81.4698 19.6206 78.8164 18.5069 77.1784 16.9344C75.5405 15.3293 74.7215 13.1672 74.7215 10.4482C74.7215 8.712 75.1965 7.09044 76.1465 5.58354C77.1293 4.07664 78.5215 2.88095 80.3233 1.99647C82.1578 1.07922 84.2707 0.6206 86.6621 0.6206C89.5448 0.6206 91.9526 1.14474 93.8854 2.19302C95.8181 3.20854 97.2759 4.53527 98.2587 6.1732C99.2742 7.77838 99.8802 9.49821 100.077 11.3327H95.2121C94.95 10.0551 94.4914 8.92493 93.8362 7.94217C93.2138 6.95941 92.313 6.1732 91.1336 5.58354C89.9543 4.96113 88.4802 4.64992 86.7112 4.64992C85.0405 4.64992 83.6483 4.92837 82.5345 5.48527C81.4207 6.00941 80.6017 6.68096 80.0776 7.49993C79.5534 8.3189 79.2914 9.17062 79.2914 10.0551C79.2914 11.6275 79.7828 12.8232 80.7655 13.6422C81.781 14.4284 83.5828 15.0508 86.1707 15.5094L89.7578 16.1482C93.3612 16.7706 96.113 17.95 98.013 19.6862C99.9457 21.3896 100.912 23.65 100.912 26.4672C100.912 28.4327 100.355 30.2017 99.2414 31.7741C98.1276 33.3138 96.5388 34.5259 94.475 35.4103C92.4112 36.2948 90.0035 36.7371 87.2517 36.7371ZM105.153 1.35767H109.772V14.6741C110.361 13.7568 111.278 12.9051 112.523 12.1189C113.801 11.3327 115.422 10.9396 117.388 10.9396C119.157 10.9396 120.713 11.2999 122.056 12.0206C123.399 12.7086 124.447 13.7405 125.201 15.1163C125.987 16.4922 126.38 18.1629 126.38 20.1284V36H121.761V21.0129C121.761 19.506 121.532 18.2939 121.073 17.3767C120.647 16.4267 120.009 15.7387 119.157 15.3129C118.338 14.887 117.339 14.6741 116.16 14.6741C113.997 14.6741 112.392 15.4439 111.344 16.9836C110.296 18.4905 109.772 20.5215 109.772 23.0767V36H105.153V1.35767ZM142.195 36.7371C139.836 36.7371 137.74 36.1966 135.905 35.1155C134.104 34.0017 132.695 32.4784 131.679 30.5457C130.697 28.5802 130.205 26.3362 130.205 23.8138C130.205 21.3569 130.697 19.162 131.679 17.2293C132.662 15.2637 134.054 13.7241 135.856 12.6103C137.691 11.4965 139.787 10.9396 142.146 10.9396C143.62 10.9396 144.947 11.1361 146.126 11.5292C147.305 11.9224 148.288 12.4301 149.074 13.0525C149.861 13.6422 150.483 14.2482 150.942 14.8706V11.6767H155.413V36H150.942V32.4621C150.647 32.9207 150.139 33.4776 149.418 34.1328C148.698 34.7879 147.715 35.394 146.47 35.9509C145.258 36.475 143.833 36.7371 142.195 36.7371ZM142.981 32.9043C144.586 32.9043 145.995 32.544 147.207 31.8233C148.452 31.0698 149.418 30.0052 150.106 28.6293C150.794 27.2534 151.138 25.6482 151.138 23.8138C151.138 22.012 150.794 20.4396 150.106 19.0965C149.418 17.7206 148.452 16.656 147.207 15.9025C145.995 15.1491 144.586 14.7724 142.981 14.7724C141.343 14.7724 139.918 15.1491 138.706 15.9025C137.494 16.6232 136.56 17.6715 135.905 19.0474C135.25 20.3905 134.923 21.9793 134.923 23.8138C134.923 25.6482 135.25 27.2534 135.905 28.6293C136.56 29.9724 137.494 31.0207 138.706 31.7741C139.951 32.5276 141.376 32.9043 142.981 32.9043ZM161.241 11.6767H165.713V16.2465C166.368 14.9689 167.367 13.8551 168.71 12.9051C170.053 11.9224 171.757 11.431 173.82 11.431H174.508V16.0499H173.28C171.544 16.0499 170.119 16.3775 169.005 17.0327C167.924 17.6551 167.121 18.556 166.597 19.7353C166.106 20.9146 165.86 22.3396 165.86 24.0103V36H161.241V11.6767ZM177.265 11.6767H181.884V36H177.265V11.6767ZM179.525 6.71372C178.608 6.71372 177.887 6.41889 177.363 5.82923C176.839 5.23958 176.577 4.53527 176.577 3.7163C176.577 2.89733 176.839 2.2094 177.363 1.6525C177.887 1.0956 178.608 0.817152 179.525 0.817152C180.442 0.817152 181.163 1.11198 181.687 1.70164C182.244 2.25853 182.522 2.93009 182.522 3.7163C182.522 4.53527 182.244 5.23958 181.687 5.82923C181.163 6.41889 180.442 6.71372 179.525 6.71372ZM187.722 11.6767H192.193V14.9689C192.75 13.9862 193.684 13.0689 194.994 12.2172C196.305 11.3655 197.959 10.9396 199.957 10.9396C201.726 10.9396 203.282 11.2999 204.625 12.0206C205.968 12.7086 207.017 13.7405 207.77 15.1163C208.556 16.4922 208.949 18.1629 208.949 20.1284V36H204.38V20.7181C204.38 19.2767 204.15 18.1137 203.692 17.2293C203.233 16.3448 202.594 15.706 201.775 15.3129C200.956 14.9198 199.974 14.7232 198.827 14.7232C197.32 14.7232 196.075 15.0999 195.092 15.8534C194.142 16.5741 193.438 17.5732 192.98 18.8508C192.554 20.0956 192.341 21.5698 192.341 23.2732V36H187.722V11.6767ZM224.912 45.0905C221.275 45.0905 218.491 44.3207 216.558 42.7811C214.625 41.2742 213.561 39.194 213.364 36.5405H218.032C218.098 37.8836 218.671 39.0302 219.752 39.9802C220.833 40.9302 222.553 41.4052 224.912 41.4052C227.237 41.4052 229.056 40.75 230.366 39.4397C231.709 38.1621 232.381 36.3112 232.381 33.8871V30.8896C231.496 32.1345 230.317 33.0845 228.843 33.7396C227.369 34.3948 225.665 34.7224 223.732 34.7224C221.8 34.7224 219.998 34.2638 218.327 33.3465C216.656 32.3965 215.33 31.0371 214.347 29.2681C213.364 27.4991 212.873 25.4353 212.873 23.0767C212.873 20.6853 213.348 18.5724 214.298 16.7379C215.248 14.9034 216.558 13.4784 218.229 12.4629C219.9 11.4474 221.8 10.9396 223.929 10.9396C226.025 10.9396 227.745 11.3163 229.088 12.0698C230.464 12.7905 231.594 13.6749 232.479 14.7232V11.6767H236.95V33.494C236.95 37.1629 235.853 40.0129 233.658 42.044C231.463 44.075 228.548 45.0905 224.912 45.0905ZM225.108 30.9879C226.648 30.9879 227.991 30.644 229.137 29.956C230.284 29.2681 231.152 28.3181 231.742 27.106C232.364 25.8939 232.675 24.5181 232.675 22.9784C232.675 21.275 232.364 19.8008 231.742 18.556C231.152 17.3112 230.284 16.3612 229.137 15.706C228.024 15.0508 226.681 14.7232 225.108 14.7232C223.503 14.7232 222.127 15.0508 220.981 15.706C219.867 16.3612 219.015 17.3112 218.425 18.556C217.836 19.8008 217.541 21.275 217.541 22.9784C217.541 25.337 218.212 27.2698 219.556 28.7767C220.899 30.2508 222.75 30.9879 225.108 30.9879ZM109.462 61.2732L108.578 60.831C104.794 67.3172 99.8802 70.5112 91.2811 70.5603C81.65 70.5603 77.3259 66.1379 77.3259 58.2758C77.3259 49.2344 83.8612 43.043 93.738 43.043C102.042 43.043 106.956 46.4335 109.364 51.2491L110.15 50.856L106.71 38.3258H105.973L102.042 42.4042C100.322 40.4387 97.5216 38.8663 94.0328 38.8663C84.156 38.8663 75.3603 46.7775 75.3603 58.2758C75.3603 68.8896 81.306 74.7371 90.0526 74.7371C98.75 74.7371 105.875 68.9388 109.462 61.2732ZM114.018 74.4914C117.064 74.4914 121.045 71.494 125.32 65.0077L124.337 64.4672C121.045 69.4302 118.538 70.7569 116.622 70.7569C115.05 70.7569 113.674 69.6759 115.59 65.45L122.076 51.0034L127.285 39.3085L126.892 39.112C123.698 40.1439 121.29 40.8318 116.819 41.0775V41.8146H117.703C121.634 41.8146 123.305 44.1732 120.258 51.0034L113.772 65.4991C111.168 71.3465 111.02 74.4914 114.018 74.4914ZM155.339 50.168L154.848 49.431H151.359C149.246 54.6396 147.035 58.5707 143.546 63.1896C138.976 69.2827 137.453 70.2655 135.291 70.2655C133.227 70.2655 132.49 68.644 133.817 65.6957L137.109 58.5707C139.615 52.9198 140.696 48.9396 137.551 48.9396C134.701 48.9396 130.868 52.0844 126.741 58.4232L127.723 58.9638C130.868 54.1974 132.834 52.6741 134.554 52.6741C136.077 52.6741 137.453 53.7551 135.586 57.981L132.49 64.8112C129.394 71.6905 129.984 74.4914 132.834 74.4914C135.242 74.4914 138.092 73.0172 143.497 65.7939C146.642 61.5681 148.017 59.406 150.524 55.3767H151.261L147.084 64.8603C144.578 70.5112 143.448 74.4914 146.592 74.4914C149.688 74.4914 154.061 71.494 158.287 65.0077L157.305 64.4672C154.061 69.4302 151.555 70.7569 149.59 70.7569C148.067 70.7569 146.691 69.6759 148.607 65.45L155.339 50.168ZM166.809 74.4914C175.114 74.4914 184.155 61.2732 184.155 53.5586C184.155 50.4629 182.779 48.9396 180.322 48.9396C176.146 48.9396 171.33 53.5094 166.613 61.3224H165.974L170.495 50.9543L175.703 39.2594L175.31 39.0628C172.116 40.0947 169.708 40.7827 165.237 41.0284V41.7654H166.121C170.052 41.7654 171.723 44.0749 168.677 50.9543L158.358 74.4914H159.144L161.846 70.7078C162.583 72.8207 164.402 74.4914 166.809 74.4914ZM180.961 55.4258C180.961 61.3224 174.622 72.0836 168.726 72.0836C165.827 72.0836 164.647 69.725 165.04 67.3664C170.544 56.5069 175.703 51.6422 178.455 51.6422C180.322 51.6422 180.961 52.8215 180.961 55.4258Z" fill="black"/>
</svg>
