<svg width="65" height="65" viewBox="0 0 65 65" fill="none" xmlns="http://www.w3.org/2000/svg">
<path d="M15.8742 12.4333C16.069 12.295 16.2573 12.1736 16.4305 12.0723C16.4305 12.075 16.4305 12.0777 16.4305 12.0804C16.4332 12.3224 16.4361 12.5803 16.4319 12.8663C16.4188 13.7693 16.3314 14.6488 16.0444 15.2198C15.977 15.3537 15.9151 15.4794 15.8564 15.5988C15.7415 15.832 15.6386 16.0411 15.5299 16.2409C15.3679 16.5384 15.2328 16.7377 15.1074 16.8646C14.9941 16.9793 14.9166 17.0076 14.8523 17.0154C14.7743 17.0248 14.6065 17.0156 14.2993 16.8612C13.9979 16.7096 13.832 16.5536 13.7382 16.418C13.6472 16.2864 13.5975 16.1358 13.5883 15.9465C13.5679 15.5292 13.7451 14.9672 14.1076 14.2461C14.397 13.6705 15.1093 12.9762 15.8742 12.4333ZM17.1545 11.7457C17.1542 11.7461 17.1478 11.7473 17.1363 11.748C17.1491 11.7455 17.1549 11.7452 17.1545 11.7457Z" stroke="black" stroke-width="1.5"/>
<path fill-rule="evenodd" clip-rule="evenodd" d="M24.2521 34.3943C25.735 35.5285 27.382 37.1147 28.1561 38.9675C28.4302 39.6237 28.3058 41.7021 28.2174 43.1787C28.1842 43.7335 28.1561 44.2033 28.1561 44.4809V50.4906C28.8378 50.3985 29.4627 50.2254 29.8689 49.9884V43.8292C29.8689 43.4397 30.0373 42.6981 30.2226 41.8827C30.5173 40.585 30.8546 39.1003 30.623 38.5498C29.4223 35.6957 25.3663 33.2834 23.8359 32.3906C23.9581 32.9607 24.1 33.6415 24.2521 34.3943Z" fill="white"/>
<path fill-rule="evenodd" clip-rule="evenodd" d="M46.5976 43.8524C47.0588 44.8125 47.379 45.6373 47.379 46.2379C47.379 47.8468 47.0917 47.9043 46.6812 47.9864C46.3734 48.0479 45.9963 48.1233 45.6192 48.8775C45.359 49.398 45.6376 49.7646 46.2046 50C46.5781 49.2657 46.9509 49.1911 47.2558 49.1301C47.6663 49.048 47.9536 48.9906 47.9536 47.3816C47.9536 46.5537 47.345 45.2997 46.5976 43.8524ZM45.4347 41.5729C43.9714 38.5626 42.8531 35.2721 45.3139 33.3034C45.9636 33.6282 47.478 32.8202 49.1375 31.9346C51.1499 30.8608 53.3759 29.6731 54.5326 30.2532C54.5467 29.9149 54.513 29.6616 54.4181 29.5197C53.5043 28.1542 50.8908 29.5488 48.5629 30.7909C46.9034 31.6764 45.389 32.4845 44.7393 32.1597C41.9622 34.3815 43.7436 38.2868 45.4347 41.5729Z" fill="white"/>
<mask id="path-4-inside-1_779_2898" fill="white">
<path fill-rule="evenodd" clip-rule="evenodd" d="M13.6541 12.0571C13.6485 11.541 13.6442 11.1518 13.7091 11.0226C13.241 10.7873 10.6556 12.4302 9.91125 13.9107C9.29121 15.1441 8.99196 16.295 9.80611 17.0957C6.94147 18.984 5.05102 22.2301 5.05102 25.9178C5.05102 26.0861 5.05496 26.2535 5.06275 26.4198C2.97542 27.265 1.53125 29.0859 1.53125 31.196C1.53125 34.1117 4.28883 36.4753 7.69047 36.4753C9.00324 36.4753 10.2201 36.1233 11.2195 35.5233C12.5564 36.1353 14.0432 36.4765 15.6097 36.4765C17.3151 36.4765 18.9261 36.0721 20.352 35.3541C20.5773 35.6832 20.8181 36.0049 21.0735 36.3186C21.9646 40.1732 23.0454 45.406 23.0454 47.6126C23.0454 49.2215 22.7581 49.279 22.3477 49.3611C22.0398 49.4226 21.6627 49.4981 21.2856 50.2523C20.4057 52.012 25.6851 52.012 27.4449 51.1321V44.9729C27.4449 44.5834 27.6414 43.8419 27.8575 43.0265C27.9908 42.5235 28.1316 41.9925 28.2382 41.4986C30.9325 42.6204 34.0125 43.2567 37.284 43.2567C40.3409 43.2567 43.2306 42.7011 45.7946 41.713C46.1528 42.4765 46.5426 43.227 46.9123 43.939L46.9124 43.9392C47.7697 45.59 48.5197 47.0341 48.5197 47.9531C48.5197 49.5621 48.2324 49.6195 47.8219 49.7016C47.5141 49.7632 47.137 49.8386 46.7599 50.5928C45.88 52.3526 51.1594 52.3526 52.9191 51.4727V42.6738C52.9191 42.1355 53.416 40.5193 53.988 38.6591L53.988 38.659L53.9881 38.6588C54.6035 36.657 55.3058 34.3729 55.5692 32.8454C56.1389 31.4372 56.4461 29.9388 56.4461 28.3846C56.4461 20.171 47.8669 13.5125 37.284 13.5125C31.6356 13.5125 26.558 15.4093 23.0509 18.4269C21.1422 16.5307 18.5127 15.3591 15.6097 15.3591C14.7602 15.3591 13.9342 15.4594 13.1428 15.6489C13.1578 15.6187 13.1729 15.5885 13.1882 15.5582C13.6816 14.5768 13.6652 13.0719 13.6541 12.0571Z"/>
</mask>
<path fill-rule="evenodd" clip-rule="evenodd" d="M13.6541 12.0571C13.6485 11.541 13.6442 11.1518 13.7091 11.0226C13.241 10.7873 10.6556 12.4302 9.91125 13.9107C9.29121 15.1441 8.99196 16.295 9.80611 17.0957C6.94147 18.984 5.05102 22.2301 5.05102 25.9178C5.05102 26.0861 5.05496 26.2535 5.06275 26.4198C2.97542 27.265 1.53125 29.0859 1.53125 31.196C1.53125 34.1117 4.28883 36.4753 7.69047 36.4753C9.00324 36.4753 10.2201 36.1233 11.2195 35.5233C12.5564 36.1353 14.0432 36.4765 15.6097 36.4765C17.3151 36.4765 18.9261 36.0721 20.352 35.3541C20.5773 35.6832 20.8181 36.0049 21.0735 36.3186C21.9646 40.1732 23.0454 45.406 23.0454 47.6126C23.0454 49.2215 22.7581 49.279 22.3477 49.3611C22.0398 49.4226 21.6627 49.4981 21.2856 50.2523C20.4057 52.012 25.6851 52.012 27.4449 51.1321V44.9729C27.4449 44.5834 27.6414 43.8419 27.8575 43.0265C27.9908 42.5235 28.1316 41.9925 28.2382 41.4986C30.9325 42.6204 34.0125 43.2567 37.284 43.2567C40.3409 43.2567 43.2306 42.7011 45.7946 41.713C46.1528 42.4765 46.5426 43.227 46.9123 43.939L46.9124 43.9392C47.7697 45.59 48.5197 47.0341 48.5197 47.9531C48.5197 49.5621 48.2324 49.6195 47.8219 49.7016C47.5141 49.7632 47.137 49.8386 46.7599 50.5928C45.88 52.3526 51.1594 52.3526 52.9191 51.4727V42.6738C52.9191 42.1355 53.416 40.5193 53.988 38.6591L53.988 38.659L53.9881 38.6588C54.6035 36.657 55.3058 34.3729 55.5692 32.8454C56.1389 31.4372 56.4461 29.9388 56.4461 28.3846C56.4461 20.171 47.8669 13.5125 37.284 13.5125C31.6356 13.5125 26.558 15.4093 23.0509 18.4269C21.1422 16.5307 18.5127 15.3591 15.6097 15.3591C14.7602 15.3591 13.9342 15.4594 13.1428 15.6489C13.1578 15.6187 13.1729 15.5885 13.1882 15.5582C13.6816 14.5768 13.6652 13.0719 13.6541 12.0571Z" fill="white"/>
<path d="M13.7091 11.0226L15.0493 11.6964L15.7231 10.3562L14.3829 9.68248L13.7091 11.0226ZM13.6541 12.0571L12.1542 12.0735L12.1542 12.0735L13.6541 12.0571ZM9.91125 13.9107L8.57109 13.237L8.57109 13.237L9.91125 13.9107ZM9.80611 17.0957L10.6317 18.3481L12.1805 17.3272L10.858 16.0263L9.80611 17.0957ZM5.06275 26.4198L5.62573 27.8102L6.6108 27.4113L6.56111 26.3497L5.06275 26.4198ZM11.2195 35.5233L11.8439 34.1594L11.1252 33.8304L10.4475 34.2372L11.2195 35.5233ZM20.352 35.3541L21.5896 34.5066L20.8487 33.4246L19.6774 34.0144L20.352 35.3541ZM21.0735 36.3186L22.535 35.9808L22.4566 35.6415L22.2367 35.3715L21.0735 36.3186ZM22.3477 49.3611L22.0535 47.8902L22.0535 47.8902L22.3477 49.3611ZM21.2856 50.2523L22.6273 50.9231L22.6273 50.9231L21.2856 50.2523ZM27.4449 51.1321L28.1157 52.4738L28.9449 52.0592V51.1321H27.4449ZM27.8575 43.0265L29.3074 43.4107L29.3074 43.4107L27.8575 43.0265ZM28.2382 41.4986L28.8148 40.1138L27.1522 39.4216L26.772 41.1819L28.2382 41.4986ZM45.7946 41.713L47.1526 41.0759L46.5591 39.8109L45.2552 40.3134L45.7946 41.713ZM46.9123 43.939L45.5811 44.6304L45.5882 44.6439L45.5955 44.6573L46.9123 43.939ZM46.9124 43.9392L48.2436 43.2478L48.2366 43.2343L48.2293 43.2209L46.9124 43.9392ZM47.8219 49.7016L48.1161 51.1725L48.1161 51.1725L47.8219 49.7016ZM46.7599 50.5928L48.1015 51.2636L48.1015 51.2636L46.7599 50.5928ZM52.9191 51.4727L53.5899 52.8143L54.4191 52.3997V51.4727H52.9191ZM53.988 38.6591L52.5543 38.2179L52.5542 38.2182L53.988 38.6591ZM53.988 38.659L52.565 38.1847L52.5595 38.2012L52.5543 38.2179L53.988 38.659ZM53.9881 38.6588L55.4111 39.1331L55.4167 39.1164L55.4218 39.0996L53.9881 38.6588ZM55.5692 32.8454L54.1787 32.2829L54.1183 32.432L54.091 32.5906L55.5692 32.8454ZM23.0509 18.4269L21.9938 19.4911L22.9778 20.4686L24.0292 19.5639L23.0509 18.4269ZM13.1428 15.6489L11.8002 14.9799L10.3674 17.8555L13.492 17.1077L13.1428 15.6489ZM13.1882 15.5582L14.5284 16.232L14.5284 16.232L13.1882 15.5582ZM12.369 10.3489C12.2381 10.6093 12.2005 10.8593 12.1864 10.9614C12.1678 11.0961 12.1601 11.2299 12.1561 11.3413C12.1482 11.5621 12.1515 11.8284 12.1542 12.0735L15.154 12.0408C15.1526 11.91 15.1513 11.7963 15.1512 11.6936C15.151 11.5903 15.152 11.5103 15.1542 11.4482C15.1566 11.3817 15.1596 11.3617 15.1583 11.3709C15.1575 11.3768 15.1533 11.4065 15.1419 11.4515C15.1318 11.4915 15.1062 11.5832 15.0493 11.6964L12.369 10.3489ZM11.2514 14.5845C11.458 14.1737 12.0501 13.5659 12.782 13.0464C13.1257 12.8025 13.4308 12.6278 13.6389 12.5341C13.7473 12.4853 13.7836 12.4793 13.7591 12.4846C13.7458 12.4874 13.6807 12.5011 13.5797 12.4999C13.4868 12.4988 13.2774 12.4845 13.0354 12.3628L14.3829 9.68248C13.8368 9.40793 13.3015 9.51416 13.125 9.55234C12.8666 9.60823 12.6183 9.70352 12.4069 9.79876C11.9752 9.99317 11.4998 10.2776 11.0455 10.6001C10.1816 11.2133 9.10886 12.1673 8.57109 13.237L11.2514 14.5845ZM10.858 16.0263C10.8229 15.9918 10.8211 15.9782 10.8205 15.9764C10.8174 15.9666 10.8038 15.9179 10.8144 15.8047C10.8385 15.5459 10.9663 15.1517 11.2514 14.5845L8.57109 13.237C8.2362 13.9031 7.9043 14.701 7.82734 15.5261C7.74363 16.4237 7.96456 17.3884 8.75427 18.1651L10.858 16.0263ZM6.55102 25.9178C6.55102 22.7555 8.17016 19.9707 10.6317 18.3481L8.98057 15.8433C5.71278 17.9974 3.55102 21.7048 3.55102 25.9178H6.55102ZM6.56111 26.3497C6.55441 26.2067 6.55102 26.0627 6.55102 25.9178H3.55102C3.55102 26.1095 3.55551 26.3003 3.56439 26.49L6.56111 26.3497ZM3.03125 31.196C3.03125 29.8201 3.98127 28.476 5.62573 27.8102L4.49977 25.0295C1.96957 26.054 0.03125 28.3518 0.03125 31.196H3.03125ZM7.69047 34.9753C4.89199 34.9753 3.03125 33.0746 3.03125 31.196H0.03125C0.03125 35.1487 3.68566 37.9753 7.69047 37.9753V34.9753ZM10.4475 34.2372C9.68511 34.6949 8.73578 34.9753 7.69047 34.9753V37.9753C9.2707 37.9753 10.7551 37.5516 11.9915 36.8094L10.4475 34.2372ZM15.6097 34.9765C14.263 34.9765 12.9888 34.6836 11.8439 34.1594L10.5952 36.8872C12.124 37.5871 13.8234 37.9765 15.6097 37.9765V34.9765ZM19.6774 34.0144C18.4559 34.6294 17.0755 34.9765 15.6097 34.9765V37.9765C17.5547 37.9765 19.3962 37.5148 21.0266 36.6939L19.6774 34.0144ZM19.1143 36.2016C19.3636 36.5656 19.6293 36.9205 19.9104 37.2657L22.2367 35.3715C22.0068 35.0892 21.791 34.8007 21.5896 34.5066L19.1143 36.2016ZM19.6121 36.6565C20.0548 38.5714 20.5425 40.8199 20.9186 42.8561C21.3022 44.9332 21.5454 46.6654 21.5454 47.6126H24.5454C24.5454 46.3532 24.2482 44.3657 23.8687 42.3112C23.4816 40.2157 22.9834 37.9205 22.535 35.9808L19.6121 36.6565ZM21.5454 47.6126C21.5454 47.9783 21.5286 48.2054 21.5092 48.3404C21.4885 48.4853 21.4749 48.4488 21.5336 48.3411C21.5676 48.2789 21.6227 48.1984 21.7061 48.1177C21.7907 48.0359 21.8808 47.9767 21.9623 47.9362C22.0383 47.8984 22.0957 47.8826 22.109 47.879C22.1158 47.8772 22.1141 47.8781 22.0535 47.8902L22.6418 50.8319C22.703 50.8197 23.0025 50.7693 23.2974 50.6228C23.6617 50.4417 23.9608 50.1563 24.1673 49.7777C24.4943 49.1782 24.5454 48.3999 24.5454 47.6126H21.5454ZM22.0535 47.8902C21.897 47.9215 21.4582 47.9982 21.0063 48.3017C20.5527 48.6064 20.2123 49.0448 19.944 49.5814L22.6273 50.9231C22.682 50.8136 22.7188 50.765 22.7291 50.7524C22.7338 50.7466 22.732 50.7495 22.7229 50.758C22.7134 50.7667 22.6988 50.7788 22.679 50.7921C22.659 50.8055 22.6379 50.8174 22.6168 50.8274C22.596 50.8372 22.5792 50.8433 22.5691 50.8466C22.5598 50.8496 22.5578 50.8497 22.5691 50.8471C22.5832 50.8438 22.6002 50.8403 22.6418 50.8319L22.0535 47.8902ZM19.944 49.5814C19.6933 50.0829 19.5769 50.7181 19.824 51.366C20.0534 51.9673 20.5053 52.3357 20.8708 52.5499C21.5719 52.9609 22.4854 53.118 23.2603 53.1776C24.0877 53.2413 24.9898 53.2091 25.8127 53.1004C26.6079 52.9954 27.4582 52.8025 28.1157 52.4738L26.774 49.7905C26.5516 49.9017 26.082 50.0388 25.4199 50.1262C24.7856 50.21 24.0929 50.2328 23.4904 50.1865C22.8356 50.1361 22.4842 50.0182 22.3879 49.9618C22.3547 49.9424 22.5248 50.0289 22.627 50.2968C22.7469 50.6113 22.658 50.8616 22.6273 50.9231L19.944 49.5814ZM28.9449 51.1321V44.9729H25.9449V51.1321H28.9449ZM28.9449 44.9729C28.9449 44.9877 28.9443 44.9556 28.9603 44.8548C28.9752 44.7615 28.999 44.6412 29.033 44.4909C29.102 44.1869 29.1974 43.8261 29.3074 43.4107L26.4076 42.6422C26.3015 43.0422 26.1906 43.4599 26.1072 43.8279C26.0313 44.1629 25.9449 44.5927 25.9449 44.9729H28.9449ZM29.3074 43.4107C29.4388 42.915 29.5891 42.3493 29.7044 41.8153L26.772 41.1819C26.674 41.6356 26.5428 42.132 26.4076 42.6422L29.3074 43.4107ZM27.6616 42.8834C30.543 44.083 33.8193 44.7567 37.284 44.7567V41.7567C34.2057 41.7567 31.322 41.1578 28.8148 40.1138L27.6616 42.8834ZM37.284 44.7567C40.5216 44.7567 43.5944 44.1685 46.334 43.1127L45.2552 40.3134C42.8667 41.2338 40.1602 41.7567 37.284 41.7567V44.7567ZM44.4366 42.3501C44.8098 43.1454 45.2135 43.9225 45.5811 44.6304L48.2435 43.2477C47.8716 42.5315 47.4958 41.8075 47.1526 41.0759L44.4366 42.3501ZM45.5955 44.6573L45.5956 44.6574L48.2293 43.2209L48.2292 43.2208L45.5955 44.6573ZM45.5812 44.6305C46.0173 45.4702 46.3914 46.1923 46.6605 46.8153C46.9477 47.4803 47.0197 47.8257 47.0197 47.9531H50.0197C50.0197 47.1615 49.7167 46.3254 49.4146 45.6258C49.0943 44.8843 48.6649 44.059 48.2436 43.2478L45.5812 44.6305ZM47.0197 47.9531C47.0197 48.3188 47.0028 48.546 46.9835 48.681C46.9628 48.8259 46.9492 48.7893 47.0079 48.6817C47.0418 48.6194 47.0969 48.5389 47.1804 48.4582C47.265 48.3764 47.3551 48.3173 47.4365 48.2768C47.5126 48.239 47.5699 48.2231 47.5833 48.2196C47.5901 48.2177 47.5884 48.2186 47.5278 48.2308L48.1161 51.1725C48.1773 51.1603 48.4768 51.1099 48.7717 50.9633C49.1359 50.7823 49.435 50.4969 49.6416 50.1182C49.9685 49.5188 50.0197 48.7405 50.0197 47.9531H47.0197ZM47.5278 48.2308C47.3712 48.2621 46.9325 48.3387 46.4805 48.6423C46.027 48.9469 45.6866 49.3853 45.4183 49.922L48.1015 51.2636C48.1563 51.1541 48.1931 51.1055 48.2034 51.0929C48.2081 51.0871 48.2063 51.0901 48.1971 51.0986C48.1877 51.1072 48.1731 51.1193 48.1532 51.1327C48.1333 51.1461 48.1121 51.158 48.0911 51.1679C48.0703 51.1778 48.0534 51.1839 48.0434 51.1871C48.034 51.1902 48.0321 51.1902 48.0434 51.1876C48.0575 51.1843 48.0745 51.1808 48.1161 51.1725L47.5278 48.2308ZM45.4183 49.922C45.1676 50.4234 45.0511 51.0587 45.2983 51.7065C45.5276 52.3079 45.9795 52.6762 46.345 52.8905C47.0462 53.3015 47.9596 53.4586 48.7346 53.5182C49.562 53.5818 50.4641 53.5497 51.287 53.441C52.0822 53.3359 52.9325 53.1431 53.5899 52.8143L52.2483 50.131C52.0259 50.2423 51.5563 50.3793 50.8942 50.4668C50.2598 50.5506 49.5671 50.5734 48.9647 50.527C48.3098 50.4767 47.9584 50.3588 47.8622 50.3024C47.829 50.2829 47.9991 50.3694 48.1013 50.6374C48.2212 50.9518 48.1323 51.2021 48.1015 51.2636L45.4183 49.922ZM54.4191 51.4727V42.6738H51.4191V51.4727H54.4191ZM54.4191 42.6738C54.4191 42.7118 54.4184 42.6446 54.4717 42.3986C54.5184 42.183 54.5897 41.9038 54.6842 41.564C54.8733 40.884 55.1337 40.0366 55.4217 39.0999L52.5542 38.2182C52.2703 39.1417 51.9963 40.0326 51.7939 40.7603C51.6927 41.1243 51.6041 41.4664 51.5397 41.7634C51.482 42.03 51.4191 42.3667 51.4191 42.6738H54.4191ZM55.4216 39.1002L55.4217 39.1001L52.5543 38.2179L52.5543 38.2179L55.4216 39.1002ZM55.411 39.1333L55.4111 39.1331L52.5651 38.1844L52.565 38.1847L55.411 39.1333ZM55.4218 39.0996C56.0248 37.1385 56.7637 34.7451 57.0473 33.1003L54.091 32.5906C53.8478 34.0007 53.1822 36.1755 52.5543 38.2179L55.4218 39.0996ZM56.9597 33.408C57.5987 31.8285 57.9461 30.1395 57.9461 28.3846H54.9461C54.9461 29.738 54.6791 31.0459 54.1787 32.2829L56.9597 33.408ZM57.9461 28.3846C57.9461 19.011 48.3194 12.0125 37.284 12.0125V15.0125C47.4144 15.0125 54.9461 21.3309 54.9461 28.3846H57.9461ZM37.284 12.0125C31.3118 12.0125 25.8774 14.0161 22.0726 17.2899L24.0292 19.5639C27.2386 16.8025 31.9594 15.0125 37.284 15.0125V12.0125ZM15.6097 16.8591C18.1008 16.8591 20.3546 17.8627 21.9938 19.4911L24.1081 17.3627C21.9298 15.1988 18.9247 13.8591 15.6097 13.8591V16.8591ZM13.492 17.1077C14.1699 16.9454 14.8787 16.8591 15.6097 16.8591V13.8591C14.6418 13.8591 13.6986 13.9735 12.7937 14.1901L13.492 17.1077ZM11.848 14.8844C11.8319 14.9166 11.8159 14.9484 11.8002 14.9799L14.4854 16.3178C14.4997 16.2891 14.514 16.2605 14.5284 16.232L11.848 14.8844ZM12.1542 12.0735C12.1598 12.5898 12.1647 13.1466 12.1163 13.686C12.0662 14.2441 11.9688 14.6442 11.848 14.8844L14.5284 16.232C14.901 15.4908 15.042 14.6478 15.1043 13.9543C15.1682 13.2422 15.1594 12.5391 15.154 12.0408L12.1542 12.0735Z" fill="black" mask="url(#path-4-inside-1_779_2898)"/>
<path d="M54.8633 32.389C56.4857 27.8112 64.3807 28.6351 59.9813 25.1156C55.5818 21.5961 60.8889 32.8202 64.0006 30.2227" stroke="black" stroke-width="1.5" stroke-linecap="round"/>
<g style="mix-blend-mode:multiply" opacity="0.4">
<path d="M31.2734 16.7718C34.9915 14.4837 40.4255 15.0557 42.7135 16.4858" stroke="black" stroke-width="1.5" stroke-linecap="round"/>
</g>
<mask id="path-8-inside-2_779_2898" fill="white">
<path fill-rule="evenodd" clip-rule="evenodd" d="M43.3333 16.7471C44.3806 15.4172 45 13.7708 45 11.9883C45 7.57 41.1944 3.98828 36.5 3.98828C31.8056 3.98828 28 7.57 28 11.9883C28 13.9913 28.7821 15.8224 30.0747 17.2258C31.7909 15.663 34.2539 14.6836 36.9903 14.6836C39.4355 14.6836 41.6624 15.4657 43.3333 16.7471Z"/>
</mask>
<path fill-rule="evenodd" clip-rule="evenodd" d="M43.3333 16.7471C44.3806 15.4172 45 13.7708 45 11.9883C45 7.57 41.1944 3.98828 36.5 3.98828C31.8056 3.98828 28 7.57 28 11.9883C28 13.9913 28.7821 15.8224 30.0747 17.2258C31.7909 15.663 34.2539 14.6836 36.9903 14.6836C39.4355 14.6836 41.6624 15.4657 43.3333 16.7471Z" fill="#657310"/>
<path d="M43.3333 16.7471L42.4204 17.9374L43.5955 18.8386L44.5117 17.6752L43.3333 16.7471ZM30.0747 17.2258L28.9713 18.2419L29.9817 19.339L31.0845 18.3349L30.0747 17.2258ZM43.5 11.9883C43.5 13.4147 43.0062 14.738 42.1548 15.8191L44.5117 17.6752C45.755 16.0964 46.5 14.1269 46.5 11.9883H43.5ZM36.5 5.48828C40.453 5.48828 43.5 8.4828 43.5 11.9883H46.5C46.5 6.6572 41.9359 2.48828 36.5 2.48828V5.48828ZM29.5 11.9883C29.5 8.4828 32.547 5.48828 36.5 5.48828V2.48828C31.0641 2.48828 26.5 6.6572 26.5 11.9883H29.5ZM31.178 16.2096C30.1229 15.064 29.5 13.5896 29.5 11.9883H26.5C26.5 14.393 27.4413 16.5808 28.9713 18.2419L31.178 16.2096ZM31.0845 18.3349C32.5088 17.0381 34.6055 16.1836 36.9903 16.1836V13.1836C33.9023 13.1836 31.0731 14.288 29.0648 16.1166L31.0845 18.3349ZM36.9903 16.1836C39.1194 16.1836 41.0223 16.8651 42.4204 17.9374L44.2461 15.5569C42.3025 14.0662 39.7516 13.1836 36.9903 13.1836V16.1836Z" fill="black" mask="url(#path-8-inside-2_779_2898)"/>
<path d="M31.2734 16.7718C34.9915 14.4837 40.4255 15.0557 42.7135 16.4858" stroke="white" stroke-width="1.5" stroke-linecap="round"/>
<g style="mix-blend-mode:multiply">
<path d="M30.6562 16.2167C34.7668 13.9379 40.7744 14.5076 43.304 15.9318" stroke="black" stroke-width="1.5" stroke-linecap="round"/>
</g>
</svg>
