<svg width="117" height="109" viewBox="0 0 117 109" fill="none" xmlns="http://www.w3.org/2000/svg">
<path d="M32.9614 63.7772C27.2841 63.7772 22.2478 62.5182 17.8524 60C13.5029 57.4818 10.1377 54.0938 7.75694 49.8358C5.42192 45.5321 4.25441 40.8391 4.25441 35.757C4.25441 30.675 5.42192 26.0049 7.75694 21.7469C10.1377 17.489 13.5029 14.1009 17.8524 11.5828C22.202 9.06461 27.2383 7.80553 32.9614 7.80553C38.6844 7.80553 43.7208 9.06461 48.0703 11.5828C52.4656 14.1009 55.8308 17.489 58.1658 21.7469C60.5466 26.0049 61.737 30.675 61.737 35.757C61.737 40.8391 60.5466 45.5321 58.1658 49.8358C55.785 54.0938 52.3969 57.4818 48.0016 60C43.6521 62.5182 38.6387 63.7772 32.9614 63.7772ZM33.03 61.1675C38.2037 61.1675 42.7364 60.0458 46.6281 57.8023C50.5656 55.5589 53.5873 52.5142 55.6934 48.6683C57.7995 44.7766 58.8526 40.4958 58.8526 35.8257C58.8526 31.1557 57.7995 26.8977 55.6934 23.0518C53.5873 19.1601 50.5656 16.0925 46.6281 13.8491C42.7364 11.5599 38.2037 10.4153 33.03 10.4153C27.8106 10.4153 23.2321 11.5599 19.2947 13.8491C15.403 16.0925 12.4041 19.1601 10.298 23.0518C8.19189 26.8977 7.13885 31.1557 7.13885 35.8257C7.13885 40.4958 8.19189 44.7766 10.298 48.6683C12.4041 52.5142 15.403 55.5589 19.2947 57.8023C23.2321 60.0458 27.8106 61.1675 33.03 61.1675ZM32.0686 24.9061L23.8273 30.881V28.0652L32.412 21.6096H34.953V49.2177H32.0686V24.9061Z" fill="black"/>
<path d="M67.5 29H116L60 77.7167H8L67.5 29Z" fill="#657310" stroke="#282828" stroke-width="2" stroke-linejoin="round"/>
<path d="M8 108H7V109H8V108ZM59.5 108V109C60.0523 109 60.5 108.553 60.5 108H59.5ZM7 77.7169V108H9V77.7169H7ZM8 109H59.5V107H8V109ZM60.5 108V77.0586H58.5V108H60.5Z" fill="black"/>
<path d="M116 29V53.3583L59.5 108" stroke="black" stroke-width="2" stroke-linejoin="round"/>
</svg>
