<svg width="65" height="65" viewBox="0 0 65 65" fill="none" xmlns="http://www.w3.org/2000/svg">
<path d="M38.9481 22.8158C41.9539 28.7648 39.846 36.126 34.3196 39.2823C28.7932 42.4386 21.8566 40.2429 18.8508 34.294C18.1145 32.8368 17.5527 30.5214 17.1817 27.7757C16.8133 25.0493 16.6419 21.9693 16.6515 19.0312C16.6611 16.0902 16.8519 13.3168 17.1991 11.2004C17.3732 10.1393 17.5822 9.27115 17.815 8.63868C17.9313 8.32271 18.0461 8.08657 18.1522 7.9213C18.2461 7.77518 18.3139 7.7146 18.3436 7.69332C18.3582 7.6901 18.4128 7.67889 18.5273 7.68368C18.6946 7.69067 18.9263 7.72896 19.2264 7.81037C19.8253 7.97281 20.6064 8.28168 21.5266 8.72169C23.3616 9.59909 25.6628 10.9558 28.0076 12.5539C30.3511 14.1511 32.7202 15.9771 34.6943 17.7864C36.6838 19.6099 38.2153 21.3654 38.9481 22.8158Z" stroke="black" stroke-width="1.5"/>
<path d="M46.9057 32.2146C45.3208 35.2508 43.2658 37.5904 41.2582 38.9337C39.2211 40.2968 37.4088 40.5346 36.1487 39.791C34.8886 39.0475 34.1197 37.2867 34.13 34.7275C34.1401 32.2056 34.9204 29.1138 36.5053 26.0777C38.0833 23.055 41.907 18.4219 45.5628 14.6196C47.3827 12.7268 49.1353 11.0666 50.5129 9.9386C51.2051 9.37183 51.7811 8.95736 52.2112 8.71356C52.2681 8.68136 52.3203 8.65332 52.3681 8.62902C52.3709 8.67686 52.3733 8.72878 52.3751 8.78495C52.3912 9.30056 52.3527 10.0401 52.2598 10.9633C52.0749 12.8014 51.6845 15.2705 51.1537 17.9247C50.0865 23.2611 48.481 29.197 46.9057 32.2146ZM52.7221 8.49303C52.7219 8.49334 52.7175 8.49407 52.7096 8.49428C52.7183 8.49283 52.7222 8.49272 52.7221 8.49303Z" fill="#657310" stroke="black" stroke-width="1.5"/>
<path d="M35.4466 39.0622C39.7659 47.6427 38.6378 50.9974 35.2483 59.1542" stroke="black" stroke-width="1.5" stroke-linecap="round"/>
<path d="M23.7227 20.9648L32.5666 36.0319" stroke="black" stroke-width="1.5" stroke-linecap="round"/>
</svg>
