<svg width="101" height="136" viewBox="0 0 101 136" fill="none" xmlns="http://www.w3.org/2000/svg">
<rect x="36.5" y="46.5" width="63" height="88" rx="2.5" fill="#FCFCFC" stroke="#282828" stroke-width="3"/>
<path d="M32.9614 63.7772C27.2841 63.7772 22.2478 62.5182 17.8524 60C13.5029 57.4818 10.1377 54.0938 7.75694 49.8358C5.42192 45.5321 4.25441 40.8391 4.25441 35.757C4.25441 30.675 5.42192 26.0049 7.75694 21.7469C10.1377 17.489 13.5029 14.1009 17.8524 11.5828C22.202 9.06461 27.2383 7.80553 32.9614 7.80553C38.6844 7.80553 43.7208 9.06461 48.0703 11.5828C52.4656 14.1009 55.8308 17.489 58.1658 21.7469C60.5466 26.0049 61.737 30.675 61.737 35.757C61.737 40.8391 60.5466 45.5321 58.1658 49.8358C55.785 54.0938 52.3969 57.4818 48.0016 60C43.6521 62.5182 38.6387 63.7772 32.9614 63.7772ZM33.03 61.1675C38.2037 61.1675 42.7364 60.0458 46.6281 57.8023C50.5656 55.5589 53.5873 52.5142 55.6934 48.6683C57.7995 44.7766 58.8526 40.4958 58.8526 35.8257C58.8526 31.1557 57.7995 26.8977 55.6934 23.0518C53.5873 19.1601 50.5656 16.0925 46.6281 13.8491C42.7364 11.5599 38.2037 10.4153 33.03 10.4153C27.8106 10.4153 23.2321 11.5599 19.2947 13.8491C15.403 16.0925 12.4041 19.1601 10.298 23.0518C8.19189 26.8977 7.13885 31.1557 7.13885 35.8257C7.13885 40.4958 8.19189 44.7766 10.298 48.6683C12.4041 52.5142 15.403 55.5589 19.2947 57.8023C23.2321 60.0458 27.8106 61.1675 33.03 61.1675ZM34.4036 35.8944C35.6856 34.4293 36.6012 33.1702 37.1507 32.1172C37.7001 31.0641 37.9748 29.9424 37.9748 28.752C37.9748 27.1953 37.4712 25.9134 36.4639 24.9061C35.5024 23.8988 34.1289 23.3952 32.3433 23.3952C30.2372 23.3952 28.7492 24.082 27.8793 25.4555C27.0552 26.7833 26.7804 28.546 27.0552 30.7436H24.2394C23.9647 27.7218 24.537 25.341 25.9563 23.6012C27.3756 21.8614 29.5275 20.9915 32.412 20.9915C35.0675 20.9915 37.1278 21.7012 38.5929 23.1205C40.1038 24.5398 40.8592 26.3254 40.8592 28.4773C40.8592 30.0798 40.4929 31.5906 39.7604 33.01C39.0278 34.3835 37.9061 35.9631 36.3952 37.7487L35.9145 38.2294L28.7034 46.7454H41.2026V49.2177H23.2779L33.9228 36.5125L34.4036 35.8944Z" fill="black"/>
<path d="M41 67.8238C41 66.7033 41.6244 65.6763 42.619 65.1605L66.619 52.716C67.4849 52.2671 68.5151 52.2671 69.381 52.716L93.381 65.1605C94.3756 65.6763 95 66.7033 95 67.8238V117C95 118.657 93.6569 120 92 120H44C42.3431 120 41 118.657 41 117V67.8238Z" fill="#657310"/>
<path d="M44 126H54.5" stroke="#282828" stroke-width="3" stroke-linecap="round"/>
</svg>
