<svg width="81" height="166" viewBox="0 0 81 166" fill="none" xmlns="http://www.w3.org/2000/svg">
<path d="M40.9614 63.7772C35.2841 63.7772 30.2478 62.5182 25.8524 60C21.5029 57.4818 18.1377 54.0938 15.7569 49.8358C13.4219 45.5321 12.2544 40.8391 12.2544 35.757C12.2544 30.675 13.4219 26.0049 15.7569 21.7469C18.1377 17.489 21.5029 14.1009 25.8524 11.5828C30.202 9.06461 35.2383 7.80553 40.9614 7.80553C46.6844 7.80553 51.7208 9.06461 56.0703 11.5828C60.4656 14.1009 63.8308 17.489 66.1658 21.7469C68.5466 26.0049 69.737 30.675 69.737 35.757C69.737 40.8391 68.5466 45.5321 66.1658 49.8358C63.785 54.0938 60.3969 57.4818 56.0016 60C51.6521 62.5182 46.6387 63.7772 40.9614 63.7772ZM41.03 61.1675C46.2037 61.1675 50.7364 60.0458 54.6281 57.8023C58.5656 55.5589 61.5873 52.5142 63.6934 48.6683C65.7995 44.7766 66.8526 40.4958 66.8526 35.8257C66.8526 31.1557 65.7995 26.8977 63.6934 23.0518C61.5873 19.1601 58.5656 16.0925 54.6281 13.8491C50.7364 11.5599 46.2037 10.4153 41.03 10.4153C35.8106 10.4153 31.2321 11.5599 27.2947 13.8491C23.403 16.0925 20.4041 19.1601 18.298 23.0518C16.1919 26.8977 15.1388 31.1557 15.1388 35.8257C15.1388 40.4958 16.1919 44.7766 18.298 48.6683C20.4041 52.5142 23.403 55.5589 27.2947 57.8023C31.2321 60.0458 35.8106 61.1675 41.03 61.1675ZM40.3433 49.8358C38.5119 49.8358 36.9094 49.4695 35.5359 48.737C34.1624 48.0044 33.0864 46.9972 32.3081 45.7152C31.5297 44.3874 31.0719 42.8537 30.9345 41.1138H33.7503C33.8876 43.0368 34.5515 44.5706 35.7419 45.7152C36.9781 46.814 38.489 47.3634 40.2746 47.3634C42.2891 47.3634 43.9145 46.7225 45.1507 45.4405C46.4326 44.1585 47.0736 42.4187 47.0736 40.221C47.0736 38.2523 46.4326 36.627 45.1507 35.345C43.8687 34.063 42.2662 33.422 40.3433 33.422C39.0155 33.422 37.8251 33.7425 36.7721 34.3835C35.7648 34.9787 34.9865 35.8715 34.4371 37.0619H31.484L32.9262 21.6096H48.6532V24.0133H35.3299L34.2997 34.1775C34.8491 33.2618 35.6961 32.5292 36.8408 31.9798C37.9854 31.3846 39.3131 31.087 40.824 31.087C43.388 31.087 45.5627 31.934 47.3483 33.6281C49.1339 35.3221 50.0267 37.5198 50.0267 40.221C50.0267 42.0982 49.6147 43.7694 48.7905 45.2345C47.9664 46.6996 46.8218 47.8442 45.3567 48.6683C43.8916 49.4466 42.2204 49.8358 40.3433 49.8358Z" fill="black"/>
<path d="M72.1101 105.895C74.4497 105.895 76.346 103.999 76.346 101.659C76.346 99.3194 74.4497 97.4231 72.1101 97.4231H47.9453L75.0232 96.6641C77.2182 96.6641 78.9988 94.8835 78.9988 92.6885C78.9988 90.4934 77.2182 88.7128 75.0232 88.7128H47.9453L72.4956 87.9442C74.6232 87.9442 76.3484 86.219 76.3484 84.0914C76.3484 81.9638 74.6232 80.2386 72.4956 80.2386H47.9453L66.8189 79.7109" stroke="black" stroke-width="2.89139" stroke-miterlimit="10"/>
<path d="M6.13672 96.0029C9.17509 91.0177 11.0111 88.0058 16.0686 79.7123C21.1262 71.4188 25.0536 72.0092 30.6027 72.0092H66.8198C68.9474 72.0092 70.6726 73.7344 70.6726 75.8619" stroke="black" stroke-width="2.89139" stroke-miterlimit="10"/>
<path d="M66.8203 79.7102C68.9479 79.7102 70.6731 77.985 70.6731 75.8574" stroke="black" stroke-width="2.89139" stroke-miterlimit="10"/>
<path d="M54.3164 105.895L65.8362 117.87" stroke="black" stroke-width="2.89139" stroke-miterlimit="10"/>
<path d="M72.1131 105.891H33.3034C36.0598 110.323 38.2838 115.149 37.4766 119.705C36.9803 122.503 34.9635 124.553 32.6239 124.553C29.3036 117.378 26.6893 113.395 22.251 108.665C17.8128 103.935 12.8155 100.848 9.08316 101.142C5.72915 101.407 3.08112 104.458 5.23762 107.436" stroke="black" stroke-width="2.89139" stroke-miterlimit="10"/>
<path d="M14.172 82.8223L4.87138 98.0744C2.86669 101.361 3.33172 105.587 6.00385 108.36L15.1647 117.868" stroke="black" stroke-width="2.89139" stroke-miterlimit="10"/>
<path d="M8.88874 129.844C6.54912 129.844 4.65285 131.74 4.65285 134.08C4.65285 136.419 6.54912 138.316 8.88874 138.316H33.0535L5.97566 139.075C3.78061 139.075 2 140.855 2 143.05C2 145.245 3.78061 147.026 5.97566 147.026H33.0535L8.50322 147.794C6.37564 147.794 4.65044 149.52 4.65044 151.647C4.65044 153.775 6.37564 155.5 8.50322 155.5H33.0535L14.18 156.028" stroke="black" stroke-width="2.89139" stroke-miterlimit="10"/>
<path d="M74.864 139.732C71.8256 144.718 69.9896 147.73 64.932 156.023C59.8745 164.316 55.9446 163.726 50.398 163.726H14.1809C12.0533 163.726 10.3281 162.001 10.3281 159.873" stroke="black" stroke-width="2.89139" stroke-miterlimit="10"/>
<path d="M14.1809 156.027C12.0533 156.027 10.3281 157.753 10.3281 159.88" stroke="black" stroke-width="2.89139" stroke-miterlimit="10"/>
<path d="M26.6878 129.844L15.168 117.869" stroke="black" stroke-width="2.89139" stroke-miterlimit="10"/>
<path d="M8.89062 129.845H47.7003C44.9439 125.414 42.7199 120.588 43.5271 116.031C44.0234 113.234 46.0402 111.184 48.3798 111.184C51.7001 118.359 54.3144 122.342 58.7527 127.072C63.1909 131.802 68.1882 134.888 71.9205 134.594C75.2745 134.329 77.9226 131.279 75.7661 128.301" stroke="black" stroke-width="2.89139" stroke-miterlimit="10"/>
<path d="M66.8286 152.915L76.1293 137.663C78.134 134.377 77.669 130.15 74.9968 127.377L65.8359 117.869" stroke="black" stroke-width="2.89139" stroke-miterlimit="10"/>
</svg>
