<svg width="860" height="522" viewBox="0 0 860 522" fill="none" xmlns="http://www.w3.org/2000/svg">
<g filter="url(#filter0_f_713_5437)">
<path d="M832 494C819.529 494 116.044 494 86 494C86 369.184 252.998 268 459 268C665.002 268 832 369.184 832 494Z" fill="#FEB36D"/>
</g>
<g filter="url(#filter1_f_713_5437)">
<path d="M155.842 170.829H96.7916V150.378H155.842V97.4628H179.105V150.378H240.712V170.829H179.105V223.744H155.842V170.829ZM335.906 134.018C340.508 128.224 344.172 123.111 346.898 118.68C349.625 114.079 351.67 109.648 353.033 105.387C354.397 100.956 355.079 96.355 355.079 91.5833C355.079 85.789 353.886 80.5911 351.5 75.9898C349.114 71.218 345.45 67.4687 340.508 64.742C335.736 61.8449 329.771 60.3963 322.613 60.3963C310.684 60.3963 302.078 64.6568 296.795 73.1778C291.682 81.5284 289.893 92.4354 291.426 105.899H267.397C266.375 92.4354 267.908 80.7616 271.999 70.8772C276.089 60.9928 282.479 53.4091 291.171 48.126C299.862 42.6726 310.428 39.9458 322.869 39.9458C335.31 39.9458 345.791 42.3317 354.312 47.1035C363.003 51.7049 369.394 57.7548 373.484 65.2533C377.744 72.7518 379.875 80.8468 379.875 89.5382C379.875 97.3776 378.511 104.876 375.785 112.034C373.058 119.191 369.394 126.093 364.792 132.74C360.362 139.386 354.567 146.885 347.41 155.235L345.109 157.792L305.997 202.527H383.198V224H259.728L330.282 140.92L335.906 134.018ZM456.406 128.905C448.396 128.905 440.898 127.031 433.911 123.281C427.094 119.532 421.555 114.334 417.295 107.688C413.205 100.871 411.16 93.117 411.16 84.4256C411.16 75.7342 413.205 68.0652 417.295 61.4188C421.555 54.602 427.094 49.319 433.911 45.5697C440.898 41.8205 448.396 39.9458 456.406 39.9458C464.416 39.9458 471.829 41.8205 478.646 45.5697C485.633 49.319 491.172 54.602 495.262 61.4188C499.523 68.0652 501.653 75.7342 501.653 84.4256C501.653 93.117 499.523 100.871 495.262 107.688C491.172 114.334 485.633 119.532 478.646 123.281C471.829 127.031 464.416 128.905 456.406 128.905ZM456.406 110.244C463.223 110.244 468.932 107.858 473.533 103.087C478.305 98.1444 480.691 91.9241 480.691 84.4256C480.691 79.4834 479.583 75.0525 477.368 71.1328C475.152 67.2131 472.17 64.1456 468.421 61.9301C464.842 59.7146 460.837 58.6069 456.406 58.6069C449.589 58.6069 443.795 61.078 439.023 66.0202C434.422 70.792 432.121 76.9271 432.121 84.4256C432.121 89.3678 433.229 93.7987 435.444 97.7184C437.66 101.638 440.557 104.706 444.136 106.921C447.885 109.137 451.975 110.244 456.406 110.244ZM617.675 227.834C600.463 227.834 585.125 223.915 571.662 216.075C558.369 208.066 547.973 196.903 540.475 182.588C533.147 168.272 529.483 151.997 529.483 133.762C529.483 116.039 533.147 100.104 540.475 85.9594C547.803 71.6441 558.113 60.3963 571.406 52.2161C584.869 44.0359 600.378 39.9458 617.931 39.9458C635.825 39.9458 650.907 43.4395 663.178 50.4267C675.618 57.4139 685.077 66.2758 691.553 77.0123C698.199 87.5784 702.374 98.7409 704.078 110.5H677.237C675.363 101.468 672.039 93.3727 667.268 86.215C662.496 78.8869 656.02 73.0926 647.84 68.8321C639.66 64.4012 629.605 62.1857 617.675 62.1857C605.916 62.1857 595.35 64.9977 585.977 70.6215C576.774 76.2454 569.446 84.4256 563.993 95.1621C558.71 105.899 556.068 118.765 556.068 133.762C556.068 148.589 558.71 161.456 563.993 172.363C569.446 183.099 576.774 191.279 585.977 196.903C595.35 202.527 605.916 205.339 617.675 205.339C629.605 205.339 639.66 203.209 647.84 198.948C656.19 194.517 662.752 188.638 667.523 181.31C672.295 173.982 675.618 165.801 677.493 156.769H704.59C703.226 168.358 699.221 179.605 692.575 190.512C685.929 201.249 676.3 210.196 663.689 217.354C651.248 224.341 635.91 227.834 617.675 227.834Z" fill="#FEB36D"/>
</g>
<defs>
<filter id="filter0_f_713_5437" x="58" y="240" width="802" height="282" filterUnits="userSpaceOnUse" color-interpolation-filters="sRGB">
<feFlood flood-opacity="0" result="BackgroundImageFix"/>
<feBlend mode="normal" in="SourceGraphic" in2="BackgroundImageFix" result="shape"/>
<feGaussianBlur stdDeviation="14" result="effect1_foregroundBlur_713_5437"/>
</filter>
<filter id="filter1_f_713_5437" x="91.793" y="34.9453" width="617.797" height="197.889" filterUnits="userSpaceOnUse" color-interpolation-filters="sRGB">
<feFlood flood-opacity="0" result="BackgroundImageFix"/>
<feBlend mode="normal" in="SourceGraphic" in2="BackgroundImageFix" result="shape"/>
<feGaussianBlur stdDeviation="2.5" result="effect1_foregroundBlur_713_5437"/>
</filter>
</defs>
</svg>
