<?xml version="1.0" encoding="utf-8"?>
<!-- Generator: Adobe Illustrator 27.1.1, SVG Export Plug-In . SVG Version: 6.00 Build 0)  -->
<svg version="1.1" id="Layer_1" xmlns="http://www.w3.org/2000/svg" xmlns:xlink="http://www.w3.org/1999/xlink" x="0px" y="0px"
	 viewBox="0 0 1920 892" style="enable-background:new 0 0 1920 892;" xml:space="preserve">
<style type="text/css">
	.st0{fill:#282828;}
	.st1{fill:#657310;}
	.st2{fill:#E6734F;}
	.st3{fill:#FEB36D;}
	.st4{fill-rule:evenodd;clip-rule:evenodd;fill:#282828;}
</style>
<path class="st0" d="M1904.5,689.5c-68.9-17.4-132.3-51.8-176.8-99.6c-26.7-28.7-46.4-61.7-74.1-89.8
	c-42.2-42.7-100.5-71.5-148.2-109.8c-65.4-52.5-64.8-127.6-105.9-152.4c-28.7-17.3-86.5-30.8-115.2-47.2
	c-28.7-16.3-48.4-41.6-71-63.7c-22.7-22.2-51.9-42.8-86.5-44.1c-24.7-0.9-48.2,8.1-70.6,17c-59.9,23.8-121.4,48.5-166.5,89.4
	c-19.4,17.6-35.8,38.3-60.2,50.7c-49,24.9-111.2,8.9-168.3,10.1c-130.7,2.9-229.9,96.3-312.2,182.2
	c-51.6,53.9-103.2,107.7-154.7,161.6c-34.6,36.2-69.9,73.4-87.4,117.5C93.2,746,74.5,776.1,39,796.4c-21,12-32.6,28.8-38.8,41.6v18
	h1920.3V704.9C1915.4,699.6,1910,694.4,1904.5,689.5z"/>
<g>
	<path class="st1" d="M1480.3,96.9h-31.6c-5.3,0-9.6,4.3-9.6,9.6c0,5.3,4.3,9.6,9.6,9.6l43,0c2.9,0,5.8-1.2,7.8-3.3l15.6-16.3
		c0.9-1,2.6-0.3,2.6,1.1v154.9c0,7.2,5.8,13,13,13c7.2,0,13-5.8,13-13v-91.3c0-1,0.8-1.8,1.8-1.8h0.4c1,0,1.8,0.8,1.8,1.8v91.3
		c0,7.2,5.8,13,13,13c7.2,0,13-5.8,13-13V92.1c0-1,0.8-1.8,1.8-1.8c1,0,1.8,0.8,1.8,1.8v57.7c0,5.3,4.3,9.6,9.6,9.6
		c5.3,0,9.6-4.3,9.6-9.6V90.3V76.9c0-10.6-8.6-19.3-19.2-19.3h-46.1c-4.6,0-8.9,1.8-12.2,5L1488,93.7
		C1486,95.8,1483.2,96.9,1480.3,96.9L1480.3,96.9z"/>
	<path class="st1" d="M1549.6,52.3c13.7,1.1,25-10.2,23.9-23.9c-0.8-10.7-9.6-19.5-20.3-20.3c-13.6-1.1-25,10.2-23.9,23.9
		C1530.2,42.7,1538.9,51.4,1549.6,52.3z"/>
	<path class="st2" d="M1616.8,853.1l-1.2-8h72.5l1.2,8h17.3l-95-646.5h-17.3l7.2,49.2H1529l-7.2-49.2h-17.3l95,646.5H1616.8z
		 M1685.6,827.7H1613l-6.8-46.2h72.5L1685.6,827.7z M1676.2,764.1h-72.5l-6.8-46.2h72.5L1676.2,764.1z M1531.5,273h72.5l6.8,46.2
		h-72.5L1531.5,273z M1540.9,336.6h72.5l6.8,46.2h-72.5L1540.9,336.6z M1550.2,400.1h72.5l6.8,46.2H1557L1550.2,400.1z
		 M1559.5,463.7h72.5l6.8,46.2h-72.5L1559.5,463.7z M1568.9,527.2h72.5l6.8,46.2h-72.5L1568.9,527.2z M1578.2,590.8h72.5l6.8,46.2
		H1585L1578.2,590.8z M1587.6,654.4h72.5l6.8,46.2h-72.5L1587.6,654.4z"/>
	<path class="st3" d="M1519.5,833.1l92.1-626.6h-17.3l-7.2,49.2h-72.5l7.2-49.2h-17.3l-92.1,626.6H1519.5z M1512,273h72.5l-6.8,46.2
		h-72.5L1512,273z M1502.6,336.6h72.5l-6.8,46.2h-72.5L1502.6,336.6z M1493.3,400.1h72.5l-6.8,46.2h-72.5L1493.3,400.1z
		 M1483.9,463.7h72.5l-6.8,46.2h-72.5L1483.9,463.7z M1474.6,527.2h72.5l-6.8,46.2h-72.5L1474.6,527.2z M1465.2,590.8h72.5L1531,637
		h-72.5L1465.2,590.8z M1455.9,654.4h72.5l-6.8,46.2h-72.5L1455.9,654.4z M1446.6,717.9h72.5l-6.8,46.2h-72.5L1446.6,717.9z
		 M1509.7,781.5l-6.8,46.2h-72.5l6.8-46.2H1509.7z"/>
	<path class="st1" d="M1450.5,125.9l-17.8,6.9l6.9,17.8l17.8-6.9L1450.5,125.9z"/>
	<path class="st1" d="M1455,177l-17.4-8l-8,17.4l17.4,8L1455,177z"/>
</g>
<path class="st4" d="M1708.6,846c-6.3-8.3-13.8-13.7-23.6-15c-14.8-9-37.4-16.9-59.8-24.8c-20.8-7.3-41.3-14.5-55.1-22.4
	c-21.4-12.2-37.7-29.4-54-46.5c-5.5-5.8-11.1-11.6-16.8-17.2c-22.6-22.2-51.8-42.8-86.2-44.1c-24.6-0.9-48,8.1-70.4,17
	c-59.7,23.8-121,48.5-166,89.4c-5.2,4.7-10.2,9.7-15.2,14.7c-13.5,13.5-27.1,26.9-44.8,36c-14.3,7.3-29.8,11.1-46,12.8h-58.4
	c-3.9-0.2-7.8-0.5-11.7-0.8c-17.4-1.2-34.8-2.3-51.7-1.9c-11.2,0.2-22.2,1.2-32.9,2.7H-0.5v46H1921v-46H1708.6z"/>
</svg>
